<?xml version="1.0" encoding="utf-8"?>
<!-- Generator: Adobe Illustrator 24.0.1, SVG Export Plug-In . SVG Version: 6.00 Build 0)  -->
<!DOCTYPE svg PUBLIC "-//W3C//DTD SVG 1.1//EN" "http://www.w3.org/Graphics/SVG/1.1/DTD/svg11.dtd" [
	<!ENTITY ns_extend "http://ns.adobe.com/Extensibility/1.0/">
	<!ENTITY ns_ai "http://ns.adobe.com/AdobeIllustrator/10.0/">
	<!ENTITY ns_graphs "http://ns.adobe.com/Graphs/1.0/">
	<!ENTITY ns_vars "http://ns.adobe.com/Variables/1.0/">
	<!ENTITY ns_imrep "http://ns.adobe.com/ImageReplacement/1.0/">
	<!ENTITY ns_sfw "http://ns.adobe.com/SaveForWeb/1.0/">
	<!ENTITY ns_custom "http://ns.adobe.com/GenericCustomNamespace/1.0/">
	<!ENTITY ns_adobe_xpath "http://ns.adobe.com/XPath/1.0/">
]>
<svg version="1.1"
	 xmlns="http://www.w3.org/2000/svg" xmlns:xlink="http://www.w3.org/1999/xlink" x="0px" y="0px" viewBox="0 0 595 842"
	 style="enable-background:new 0 0 595 842;" xml:space="preserve">
<style type="text/css">
	.st0{fill-rule:evenodd;clip-rule:evenodd;fill:#4C4C4C;}
	.st1{fill-rule:evenodd;clip-rule:evenodd;fill:#7A7A7A;}
	.st2{fill-rule:evenodd;clip-rule:evenodd;fill:#FFFFFF;}
	.st3{fill-rule:evenodd;clip-rule:evenodd;}
	.st4{fill-rule:evenodd;clip-rule:evenodd;fill:#303030;}
	.st5{fill-rule:evenodd;clip-rule:evenodd;fill:#B2B2B2;}
	.st6{fill-rule:evenodd;clip-rule:evenodd;fill:#666666;}
	.st7{fill-rule:evenodd;clip-rule:evenodd;fill:#333333;}
	.st8{fill-rule:evenodd;clip-rule:evenodd;fill:#99CCCC;}
	.st9{fill-rule:evenodd;clip-rule:evenodd;fill:#336666;}
	.st10{fill-rule:evenodd;clip-rule:evenodd;fill:#669999;}
	.st11{fill-rule:evenodd;clip-rule:evenodd;fill:#C0BBA0;}
	.st12{fill-rule:evenodd;clip-rule:evenodd;fill:#FF9999;}
	.st13{fill:none;}
	.st14{font-family:'MarkerFelt-Thin';}
	.st15{font-size:12px;}
	.st16{fill-rule:evenodd;clip-rule:evenodd;fill:#C33445;}
	.st17{fill-rule:evenodd;clip-rule:evenodd;fill:#F16878;}
</style>
<metadata>
	<sfw  xmlns="&ns_sfw;">
		<slices></slices>
		<sliceSourceBounds  bottomLeftOrigin="true" height="273.8" width="497.4" x="47.2" y="309.6"></sliceSourceBounds>
	</sfw>
</metadata>
<g id="dictaphone">
	<g>
		<path class="st0" d="M217.6,301.2V502c0,11.5-8.9,20.9-19.9,20.9H47.7c0,5.5,4.5,10,10,10h477.3c5.5,0,10-4.5,10-10V280.3
			c0-5.5-4.5-10-10-10H511h-49.4h-7.8h-49.4h-7.8h-49.4h-7.8h-49.4H282h-49.4H57.7c-5.5,0-10,4.5-10,10h150.1
			C208.7,280.3,217.6,289.7,217.6,301.2L217.6,301.2z M249.2,314.3h259.7c4.6,0,8.4,3.8,8.4,8.4v160c0,4.6-3.8,8.4-8.4,8.4H249.2
			c-4.6,0-8.4-3.8-8.4-8.4v-160C240.8,318.1,244.6,314.3,249.2,314.3z"/>
		<path class="st1" d="M194,286.5c10.6,0,19.4,8.9,19.4,19.8v190.6c0,10.9-8.7,19.8-19.4,19.8h-3.1H47.7v6.2h150.1
			c10.9,0,19.9-9.4,19.9-20.9V301.2c0-11.5-8.9-20.9-19.9-20.9H47.7v6.2h143.2H194z"/>
		<path class="st2" d="M213.3,306.3c0-10.9-8.7-19.8-19.4-19.8h-3.1c10.4,0,18.9,8.9,18.9,19.8v190.6c0,10.9-8.5,19.8-18.9,19.8h3.1
			c10.6,0,19.4-8.9,19.4-19.8V306.3z"/>
		<path class="st3" d="M209.9,306.3c0-10.9-8.5-19.8-18.9-19.8H47.7v3.9h139.5c10.1,0,18.5,8.6,18.5,19.1v184.2
			c0,10.5-8.3,19.1-18.5,19.1H47.7v3.9h143.2c10.4,0,18.9-8.9,18.9-19.8V306.3z"/>
		<path class="st4" d="M205.6,309.5c0-10.5-8.3-19.1-18.5-19.1H47.7v222.5h139.5c10.1,0,18.5-8.6,18.5-19.1V309.5z"/>
		<path class="st5" d="M504.3,486.8H253.8c-4.5,0-8.1-3.6-8.1-8V326.7c0-4.4,3.7-8,8.1-8h250.5c4.5,0,8.1,3.6,8.1,8v152.1
			C512.4,483.2,508.8,486.8,504.3,486.8L504.3,486.8z M240.8,322.7v160c0,4.6,3.8,8.4,8.4,8.4h259.7c4.6,0,8.4-3.8,8.4-8.4v-160
			c0-4.6-3.8-8.4-8.4-8.4H249.2C244.6,314.3,240.8,318.1,240.8,322.7z"/>
		<path class="st6" d="M253.8,486.8h250.5c4.5,0,8.1-3.6,8.1-8V326.7c0-4.4-3.7-8-8.1-8H253.8c-4.5,0-8.1,3.6-8.1,8v152.1
			C245.7,483.2,249.4,486.8,253.8,486.8L253.8,486.8z M494.5,475.3h-231c-4.1,0-7.5-3.1-7.5-6.9V337.1c0-3.8,3.4-6.9,7.5-6.9h231
			c4.1,0,7.5,3.1,7.5,6.9v131.3C502,472.2,498.7,475.3,494.5,475.3z"/>
		<path class="st7" d="M263.6,475.3h231c4.1,0,7.5-3.1,7.5-6.9V337.1c0-3.8-3.4-6.9-7.5-6.9h-231c-4.1,0-7.5,3.1-7.5,6.9v131.3
			C256.1,472.2,259.5,475.3,263.6,475.3L263.6,475.3z M492.3,472.7H265.8c-1.6,0-3-0.4-4.2-1.2c-1.9-1.2-3.2-3.2-3.2-5.5V339.4
			c0-3.7,3.3-6.7,7.3-6.7h226.6c4,0,7.3,3,7.3,6.7V466c0,2.3-1.3,4.3-3.2,5.5C495.3,472.2,493.9,472.7,492.3,472.7z"/>
		<path class="st8" d="M265.8,472.7h226.6L474,441h-95h-95L265.8,472.7L265.8,472.7z M424.6,455.7c0-3.3,2.7-6,6-6c3.3,0,6,2.7,6,6
			c0,3.3-2.7,6-6,6C427.3,461.7,424.6,459,424.6,455.7L424.6,455.7z M327.6,461.7c-3.3,0-6-2.7-6-6c0-3.3,2.7-6,6-6c3.3,0,6,2.7,6,6
			C333.5,459,330.9,461.7,327.6,461.7L327.6,461.7z M304,455.7c0,3.3-2.7,6-6,6c-3.3,0-6-2.7-6-6c0-3.3,2.7-6,6-6
			C301.3,449.7,304,452.4,304,455.7L304,455.7z M454.1,455.7c0-3.3,2.7-6,6-6c3.3,0,6,2.7,6,6c0,3.3-2.7,6-6,6
			C456.8,461.7,454.1,459,454.1,455.7z"/>
		<path class="st7" d="M298,461.7c3.3,0,6-2.7,6-6c0-3.3-2.7-6-6-6c-3.3,0-6,2.7-6,6C292.1,459,294.7,461.7,298,461.7z"/>
		<path class="st7" d="M321.6,455.7c0,3.3,2.7,6,6,6c3.3,0,6-2.7,6-6c0-3.3-2.7-6-6-6C324.3,449.7,321.6,452.4,321.6,455.7z"/>
		<path class="st9" d="M284.1,441h95h95l18.3,31.7c1.6,0,3-0.4,4.2-1.2l-20-34.6h-97.5h-97.5l-20,34.6c1.2,0.8,2.6,1.2,4.2,1.2
			L284.1,441z"/>
		<path class="st10" d="M281.6,436.9h97.5h97.5l20,34.6c1.9-1.2,3.2-3.2,3.2-5.5V339.4c0-3.7-3.3-6.7-7.3-6.7H265.8
			c-4,0-7.3,3-7.3,6.7V466c0,2.3,1.3,4.3,3.2,5.5L281.6,436.9L281.6,436.9z M313.2,378.9h23h42.9H422h23h15v38.2h-15h-23h-42.9
			h-42.9h-23h-15v-38.2H313.2L313.2,378.9z M476.1,364.8h-32h-65h-65h-32v-23.9h32h65h65h32V364.8L476.1,364.8z M487.7,341
			c0-2.3,1.9-4.2,4.2-4.2c2.3,0,4.2,1.9,4.2,4.2c0,2.3-1.9,4.2-4.2,4.2C489.5,345.1,487.7,343.3,487.7,341L487.7,341z M266.3,336.8
			c2.3,0,4.2,1.9,4.2,4.2c0,2.3-1.9,4.2-4.2,4.2c-2.3,0-4.2-1.9-4.2-4.2C262.2,338.7,264,336.8,266.3,336.8z"/>
		<path class="st7" d="M424.6,455.7c0,3.3,2.7,6,6,6c3.3,0,6-2.7,6-6c0-3.3-2.7-6-6-6C427.3,449.7,424.6,452.4,424.6,455.7z"/>
		<path class="st7" d="M454.1,455.7c0,3.3,2.7,6,6,6c3.3,0,6-2.7,6-6c0-3.3-2.7-6-6-6C456.8,449.7,454.1,452.4,454.1,455.7z"/>
		<path id="rightOuterReel" class="st7" d="M422,417.1h23c6.5-3.9,10.8-11,10.8-19.1s-4.3-15.2-10.8-19.1h-23
			c-6.5,3.9-10.8,11-10.8,19.1S415.5,413.2,422,417.1L422,417.1z M449.4,398c0,8.8-7.1,15.9-15.9,15.9c-8.8,0-15.9-7.1-15.9-15.9
			c0-8.8,7.1-15.9,15.9-15.9C442.3,382.1,449.4,389.2,449.4,398z"/>
		<path class="st11" d="M455.7,398c0,8.1-4.3,15.2-10.8,19.1h15v-38.2h-15C451.4,382.8,455.7,389.9,455.7,398z"/>
		<path class="st0" d="M449.4,398c0-8.8-7.1-15.9-15.9-15.9c-8.8,0-15.9,7.1-15.9,15.9c0,8.8,7.1,15.9,15.9,15.9
			C442.3,413.9,449.4,406.8,449.4,398L449.4,398z M433.5,383.9c7.8,0,14.1,6.3,14.1,14.1c0,7.8-6.3,14.1-14.1,14.1
			c-7.8,0-14.1-6.3-14.1-14.1C419.4,390.2,425.7,383.9,433.5,383.9z"/>
		<path class="st5" d="M447.5,398c0-7.8-6.3-14.1-14.1-14.1c-7.8,0-14.1,6.3-14.1,14.1c0,7.8,6.3,14.1,14.1,14.1
			C441.2,412.1,447.5,405.8,447.5,398L447.5,398z M423.2,398c0-5.6,4.6-10.2,10.2-10.2c5.6,0,10.2,4.6,10.2,10.2
			c0,5.6-4.6,10.2-10.2,10.2C427.8,408.2,423.2,403.6,423.2,398z"/>
		<path class="st7" d="M443.7,398c0-5.6-4.6-10.2-10.2-10.2c-5.6,0-10.2,4.6-10.2,10.2c0,5.6,4.6,10.2,10.2,10.2
			C439.1,408.2,443.7,403.6,443.7,398L443.7,398z M433.5,390.3c4.2,0,7.7,3.4,7.7,7.7s-3.4,7.7-7.7,7.7c-4.2,0-7.7-3.4-7.7-7.7
			S429.2,390.3,433.5,390.3z"/>
		<circle class="st11" cx="433.5" cy="398" r="7.7"/>
		<path class="st11" d="M411.2,398c0-8.1,4.3-15.2,10.8-19.1h-42.9h-42.9c6.5,3.9,10.8,11,10.8,19.1s-4.3,15.2-10.8,19.1h42.9H422
			C415.5,413.2,411.2,406.1,411.2,398z"/>
		<path id="leftOuterReel" class="st7" d="M313.2,417.1h23c6.5-3.9,10.8-11,10.8-19.1s-4.3-15.2-10.8-19.1h-23
			c-6.5,3.9-10.8,11-10.8,19.1S306.7,413.2,313.2,417.1L313.2,417.1z M340.6,398c0,8.8-7.1,15.9-15.9,15.9
			c-8.8,0-15.9-7.1-15.9-15.9c0-8.8,7.1-15.9,15.9-15.9C333.5,382.1,340.6,389.2,340.6,398z"/>
		<path class="st0" d="M324.7,413.9c8.8,0,15.9-7.1,15.9-15.9c0-8.8-7.1-15.9-15.9-15.9c-8.8,0-15.9,7.1-15.9,15.9
			C308.7,406.8,315.9,413.9,324.7,413.9L324.7,413.9z M338.7,398c0,7.8-6.3,14.1-14.1,14.1c-7.8,0-14.1-6.3-14.1-14.1
			c0-7.8,6.3-14.1,14.1-14.1C332.4,383.9,338.7,390.2,338.7,398z"/>
		<path class="st5" d="M324.7,412.1c7.8,0,14.1-6.3,14.1-14.1c0-7.8-6.3-14.1-14.1-14.1c-7.8,0-14.1,6.3-14.1,14.1
			C310.6,405.8,316.9,412.1,324.7,412.1L324.7,412.1z M334.9,398c0,5.6-4.6,10.2-10.2,10.2c-5.6,0-10.2-4.6-10.2-10.2
			c0-5.6,4.6-10.2,10.2-10.2C330.3,387.8,334.9,392.4,334.9,398z"/>
		<path class="st7" d="M324.7,408.2c5.6,0,10.2-4.6,10.2-10.2c0-5.6-4.6-10.2-10.2-10.2c-5.6,0-10.2,4.6-10.2,10.2
			C314.5,403.6,319,408.2,324.7,408.2L324.7,408.2z M332.3,398c0,4.2-3.4,7.7-7.7,7.7c-4.2,0-7.7-3.4-7.7-7.7c0-4.2,3.4-7.7,7.7-7.7
			C328.9,390.3,332.3,393.8,332.3,398z"/>
		<path class="st11" d="M324.7,405.7c4.2,0,7.7-3.4,7.7-7.7c0-4.2-3.4-7.7-7.7-7.7c-4.2,0-7.7,3.4-7.7,7.7
			C317,402.2,320.4,405.7,324.7,405.7z"/>
		<path class="st11" d="M313.2,417.1c-6.5-3.9-10.8-11-10.8-19.1s4.3-15.2,10.8-19.1h-15v38.2H313.2z"/>
		<rect x="282" y="340.9" class="st12" width="32" height="23.9"/>
		<polygon id="tapeTitle" class="st13" points="314.8,348 314.8,372 379.8,372 444.9,372 444.9,348 379.8,348 		"/>
		<text transform="matrix(1 0 0 1 349.783 357.2168)" class="st14 st15">Oct. 6, 1997</text>
		<rect x="444.1" y="340.9" class="st12" width="32" height="23.9"/>
		<path class="st7" d="M487.7,341c0,2.3,1.9,4.2,4.2,4.2c2.3,0,4.2-1.9,4.2-4.2c0-2.3-1.9-4.2-4.2-4.2
			C489.5,336.8,487.7,338.7,487.7,341z"/>
		<path class="st7" d="M270.5,341c0-2.3-1.9-4.2-4.2-4.2c-2.3,0-4.2,1.9-4.2,4.2c0,2.3,1.9,4.2,4.2,4.2
			C268.6,345.1,270.5,343.3,270.5,341z"/>
		<polygon class="st16" points="232.6,270.3 282,270.3 282,265 232.6,264.7 		"/>
		<path class="st17" d="M232.6,264.7L282,265v-0.4c0-3.1-2.5-5.6-5.6-5.6h-38.2C235.1,259.1,232.6,261.6,232.6,264.7z"/>
		<polygon class="st4" points="289.9,264.7 289.9,270.3 339.3,270.3 339.3,265 		"/>
		<path id="playButton" class="st6" d="M289.9,264.7l49.4,0.4v-0.4c0-3.1-2.5-5.6-5.6-5.6h-38.2
			C292.4,259.1,289.9,261.6,289.9,264.7z"/>
		<polygon class="st4" points="347.1,264.7 347.1,270.3 396.5,270.3 396.5,265 		"/>
		<path class="st6" d="M347.1,264.7l49.4,0.4v-0.4c0-3.1-2.5-5.6-5.6-5.6h-38.2C349.6,259.1,347.1,261.6,347.1,264.7z"/>
		<polygon class="st4" points="404.4,264.7 404.4,270.3 453.8,270.3 453.8,265 		"/>
		<path class="st6" d="M404.4,264.7l49.4,0.4v-0.4c0-3.1-2.5-5.6-5.6-5.6H410C406.9,259.1,404.4,261.6,404.4,264.7z"/>
		<polygon class="st4" points="461.6,264.7 461.6,270.3 511,270.3 511,265 		"/>
		<path class="st6" d="M461.6,264.7L511,265v-0.4c0-3.1-2.5-5.6-5.6-5.6h-38.2C464.1,259.1,461.6,261.6,461.6,264.7z"/>
	</g>
</g>
<g id="tapeTitleText">
</g>
</svg>
