<?xml version="1.0" encoding="utf-8"?>
<!-- Generator: Adobe Illustrator 24.0.1, SVG Export Plug-In . SVG Version: 6.00 Build 0)  -->
<!DOCTYPE svg PUBLIC "-//W3C//DTD SVG 1.1//EN" "http://www.w3.org/Graphics/SVG/1.1/DTD/svg11.dtd" [
	<!ENTITY ns_extend "http://ns.adobe.com/Extensibility/1.0/">
	<!ENTITY ns_ai "http://ns.adobe.com/AdobeIllustrator/10.0/">
	<!ENTITY ns_graphs "http://ns.adobe.com/Graphs/1.0/">
	<!ENTITY ns_vars "http://ns.adobe.com/Variables/1.0/">
	<!ENTITY ns_imrep "http://ns.adobe.com/ImageReplacement/1.0/">
	<!ENTITY ns_sfw "http://ns.adobe.com/SaveForWeb/1.0/">
	<!ENTITY ns_custom "http://ns.adobe.com/GenericCustomNamespace/1.0/">
	<!ENTITY ns_adobe_xpath "http://ns.adobe.com/XPath/1.0/">
]>
<svg version="1.1" xmlns:x="&ns_extend;" xmlns:i="&ns_ai;" xmlns:graph="&ns_graphs;"
	 xmlns="http://www.w3.org/2000/svg" xmlns:xlink="http://www.w3.org/1999/xlink" x="0px" y="0px" viewBox="0 0 291 288"
	 style="enable-background:new 0 0 291 288;" xml:space="preserve">
<style type="text/css">
	.st0{fill:#FFFFFF;}
	.st1{fill:none;stroke:#000000;stroke-width:2;}
</style>
<metadata>
	<sfw  xmlns="&ns_sfw;">
		<slices></slices>
		<sliceSourceBounds  bottomLeftOrigin="true" height="269" width="402.3" x="-67.2" y="0"></sliceSourceBounds>
	</sfw>
</metadata>
<g id="Layer_1">
	<g>
		<g>
			<path d="M280.8,284.9c0.9,3.4-1.3,3-3.5,3c-58.2,0-116.3,0-174.5,0c-27.4,0-54.8-0.1-82.3,0.1c-3.1,0-3.6-0.7-3.5-3.6
				c0.2-6.5,0.1-13,0.1-19.4c3.6-11.5,7.8-22.9,10.4-34.7c2.1-9.3,6.5-14.4,16-15.4c6.2-0.7,10.3-4.1,13.2-9.9
				c7.1-14.4,6.7-28.9,1.6-43.6c-5.2-14.9-8.9-29.7-6.5-45.8c3.2-21.2,9.7-41,20-59.6c9.6-17.3,26-25.1,44.1-29.8
				c8.9-2.3,18-4.1,27-6.1c5,0,10,0,15,0c5,3.3,10.4,6.2,15,10.1c2.5,2.2,4.7,3.5,8.1,3.9c14.3,1.5,27.1,6.1,36.5,17.9
				c8.9,11.3,16.9,23.1,22.3,36.4c7.7,19,10.6,38.1-0.9,56.9c-1.5,2.4-2.7,5-3.5,7.7c-1.4,4.6-2.8,9.2-3.4,14
				c-0.8,6.8-0.5,13.7-1.3,20.4c-1.1,10.2-1.9,20.6-8.2,29.4c-0.4,0.6,0.3,3,1,3.3c5.2,2.1,10.3,4.6,15.7,5.8
				c12.5,2.8,22.8,8.1,27.6,20.9C271.5,259.5,276.1,272.2,280.8,284.9z"/>
			<path class="st0" d="M280.8,284.9c-4.7-12.7-9.3-25.4-14-38.1c-4.7-12.8-15.1-18.1-27.6-20.9c-5.4-1.2-10.6-3.6-15.7-5.8
				c-0.7-0.3-1.4-2.7-1-3.3c6.3-8.9,7-19.2,8.2-29.4c0.8-6.8,0.5-13.7,1.3-20.4c0.6-4.7,2-9.4,3.4-14c0.8-2.7,2.1-5.3,3.5-7.7
				c11.5-18.8,8.7-37.9,0.9-56.9c-5.4-13.3-13.4-25.2-22.3-36.4c-9.4-11.8-22.2-16.4-36.5-17.9c-3.4-0.3-5.5-1.7-8.1-3.9
				c-4.5-3.9-9.9-6.8-15-10.1c39.6,0,79.2,0.1,118.9-0.1c3.4,0,4.1,0.7,4.1,4.1C280.8,111,280.8,198,280.8,284.9z"/>
			<path class="st0" d="M142.9,20.1c-9,2-18.1,3.8-27,6.1C97.8,30.9,81.4,38.7,71.8,56c-10.3,18.6-16.8,38.5-20,59.6
				c-2.4,16.1,1.3,30.9,6.5,45.8c5.1,14.6,5.6,29.2-1.6,43.6c-2.9,5.8-7.1,9.2-13.2,9.9c-9.5,1-13.9,6.1-16,15.4
				c-2.6,11.7-6.9,23.1-10.4,34.7c0-80.3,0-160.6-0.1-240.8c0-3.4,0.7-4.1,4.1-4.1C61.7,20.2,102.3,20.1,142.9,20.1z"/>
		</g>
	</g>
</g>
<g id="Layer_2">
	<path class="st1" d="M17,288c0-23.3,0-23.3,0-23.3c10.9-34,10.9-34,10.9-34l0,0"/>
	<path class="st1" d="M27.9,230.7l5.6-12.2c17.2-5.6,17.2-5.6,17.2-5.6l0,0"/>
	<path class="st1" d="M-56,197.3"/>
	<path class="st1" d="M50.7,212.8l7.3-7.3l5.3-21.1l-4.6-26.1l-7.9-21.8c4.6-37.7,4.6-37.7,4.6-37.7l0,0"/>
	<path class="st1" d="M-67.2,184.4"/>
	<path class="st1" d="M335,110.1"/>
	<polyline class="st1" points="55.3,98.9 72.1,54.3 81.7,43.4 94.3,34.5 108.1,28.5 141.5,20 157.4,20 176.5,32.8 	"/>
	<path class="st1" d="M178.2,32.5l20.1,5.9l13.9,7.9l19.2,25.1l9.2,20.1l4.6,16.8v18.8l-4.3,12.9l-7.9,15.7l-3,35.2l-3,16.8
		l-4.6,8.9l1.7,3.3l25.1,8.3l10.9,8.6c20.9,49.5,20.9,49.5,20.9,49.5"/>
</g>
</svg>
