<?xml version="1.0" encoding="utf-8"?>
<!-- Generator: Adobe Illustrator 23.1.1, SVG Export Plug-In . SVG Version: 6.00 Build 0)  -->
<svg version="1.1" id="Layer_1" opacity="0.2" xmlns="http://www.w3.org/2000/svg" xmlns:xlink="http://www.w3.org/1999/xlink"
	 x="0px" y="0px" viewBox="0 0 300 300" style="enable-background:new 0 0 300 300;" xml:space="preserve">
<style type="text/css">
	.st0{clip-path:url(#SVGID_2_);fill:#151B26;}
	.st1{clip-path:url(#SVGID_2_);fill:#FFFFFF;}
	.st2{clip-path:url(#SVGID_2_);fill:#E03616;}
	.st3{clip-path:url(#SVGID_2_);fill:#011936;}
	.st4{clip-path:url(#SVGID_2_);fill:#3F5070;}
	.st5{clip-path:url(#SVGID_2_);fill:#303D56;}
	.st6{clip-path:url(#SVGID_2_);fill:#212A3B;}
	.st7{clip-path:url(#SVGID_2_);fill:#E1D8C7;}
	.st8{clip-path:url(#SVGID_2_);fill:#EEECDF;}
	.st9{clip-path:url(#SVGID_2_);fill:#999999;}
</style>
<g>
	<defs>
		<rect id="SVGID_1_" width="300" height="300"/>
	</defs>
	<clipPath id="SVGID_2_">
		<use xlink:href="#SVGID_1_"  style="overflow:visible;"/>
	</clipPath>
	<path class="st0" d="M105.52,205.53c6.52,0.69,21.23,1.82,22.98,10.26c1.67,8.01-12.91,9.82-17.45,11
		c-4.34,1.13-9.26,3.58-10.45,8.29c-1.59,6.3,7.19,8.02,11.45,8.26c9.87,0.56,19.63-4.63,29.44-2.4c5.15,1.17,5.74,5.89,5.31,10.36
		c-0.43,4.41-1.85,9.21-0.07,13.49c2.11,5.06,9.44,5.54,14.04,5.18c13.87-1.09,16.61-14.38,18.35-25.92
		c2.27-15.06,3.7-38.59,23.54-39.77c0.6-0.04,2.72-0.82,2.47-0.8c-13.05,0.78-21.44,7.83-25.13,20.31
		c-3.74,12.62-2.21,27.46-8.77,39.15c-3.75,6.69-11.85,7.95-18.43,4.48c-4.37-2.31-4.25-7.56-3.77-11.79
		c0.47-4.04,1.92-9.01-0.4-12.74c-2.96-4.76-11.64-4.35-16.08-3.66c-6.94,1.09-24.88,7.72-28.89-2
		c-3.33-8.08,10.01-10.38,14.51-11.64c4.8-1.34,13.19-3.83,13.26-10.05c0.09-8.65-17.83-10.26-23.16-10.82
		C107.44,204.62,106.02,205.58,105.52,205.53"/>
	<path class="st0" d="M130.34,124.38c-10.42-10.42-27.32-10.42-37.74,0c-10.42,10.42-10.42,27.32,0,37.74
		c10.42,10.42,27.32,10.42,37.74,0C140.76,151.69,140.76,134.8,130.34,124.38 M104.64,150.09c-3.78-3.78-3.78-9.9,0-13.68
		c3.78-3.78,9.9-3.78,13.68,0c3.78,3.78,3.78,9.9,0,13.68C114.54,153.86,108.41,153.86,104.64,150.09"/>
	<path class="st1" d="M115.06,139.05l0.64,0.64c0.32,0.32,0.85,0.32,1.17,0l1.77-1.77c0.32-0.32,0.32-0.85,0-1.17l-0.64-0.64
		c-0.32-0.32-0.85-0.32-1.17,0l-1.77,1.77C114.74,138.2,114.74,138.72,115.06,139.05"/>
	<path class="st1" d="M109.65,138.04l0.87-0.23c0.44-0.12,0.7-0.57,0.59-1.01l-0.65-2.42c-0.12-0.44-0.57-0.7-1.01-0.59l-0.87,0.23
		c-0.44,0.12-0.7,0.57-0.58,1.01l0.65,2.42C108.75,137.89,109.21,138.15,109.65,138.04"/>
	<path class="st1" d="M106.07,142.22l0.23-0.87c0.12-0.44-0.14-0.9-0.58-1.01l-2.42-0.65c-0.44-0.12-0.89,0.14-1.01,0.59l-0.23,0.87
		c-0.12,0.44,0.14,0.9,0.58,1.01l2.42,0.65C105.49,142.92,105.95,142.66,106.07,142.22"/>
	<path class="st1" d="M107.9,147.42l-0.64-0.64c-0.32-0.32-0.85-0.32-1.17,0l-1.77,1.77c-0.32,0.32-0.32,0.85,0,1.17l0.64,0.64
		c0.32,0.32,0.85,0.32,1.17,0l1.77-1.77C108.22,148.26,108.22,147.74,107.9,147.42"/>
	<path class="st1" d="M113.32,148.43l-0.87,0.23c-0.44,0.12-0.7,0.57-0.58,1.01l0.65,2.42c0.12,0.44,0.57,0.7,1.01,0.58l0.87-0.23
		c0.44-0.12,0.7-0.57,0.58-1.01l-0.65-2.42C114.21,148.57,113.76,148.31,113.32,148.43"/>
	<path class="st1" d="M116.9,144.24l-0.23,0.87c-0.12,0.44,0.14,0.9,0.58,1.01l2.42,0.65c0.44,0.12,0.9-0.14,1.01-0.59l0.23-0.87
		c0.12-0.44-0.14-0.9-0.58-1.01l-2.42-0.65C117.47,143.54,117.02,143.8,116.9,144.24"/>
	<path class="st1" d="M120.56,134.17c-5.01-5.01-13.15-5.01-18.16,0s-5.01,13.15,0,18.16s13.15,5.01,18.16,0
		C125.57,147.31,125.57,139.18,120.56,134.17 M105.6,149.12c-3.25-3.24-3.25-8.51,0-11.75c3.24-3.24,8.51-3.24,11.75,0
		c3.24,3.24,3.24,8.51,0,11.75C114.11,152.37,108.84,152.37,105.6,149.12"/>
	<path class="st2" d="M137.18,117.54c-14.2-14.2-37.22-14.2-51.42,0c-14.2,14.2-14.2,37.22,0,51.42c14.2,14.2,37.22,14.2,51.42,0
		C151.38,154.76,151.38,131.74,137.18,117.54 M133.65,121.08c2.26,2.26,4.11,4.79,5.53,7.49l-14.84,7.62
		c-0.65-1.19-1.48-2.31-2.49-3.32c-1.02-1.02-2.16-1.86-3.37-2.51l7.62-14.84C128.82,116.95,131.37,118.8,133.65,121.08
		 M80.19,144.94c-0.31-5.76,0.96-11.58,3.8-16.76l14.09,9.08c-0.97,2.17-1.38,4.53-1.24,6.86L80.19,144.94z M103.52,151.21
		c-4.4-4.4-4.4-11.52,0-15.92c4.4-4.4,11.52-4.4,15.92,0c4.4,4.4,4.4,11.52,0,15.92C115.04,155.6,107.91,155.6,103.52,151.21
		 M109.79,174.54l0.82-16.65c2.34,0.14,4.7-0.28,6.87-1.25l9.08,14.09C121.38,173.57,115.55,174.84,109.79,174.54"/>
	<path class="st0" d="M188.53,122.93c-11.22,0-20.32,9.1-20.32,20.32c0,11.22,9.1,20.32,20.32,20.32c11.22,0,20.32-9.1,20.32-20.32
		C208.85,132.02,199.75,122.93,188.53,122.93 M188.53,154.21c-6.06,0-10.96-4.91-10.96-10.96c0-6.06,4.91-10.96,10.96-10.96
		c6.05,0,10.96,4.91,10.96,10.96C199.49,149.3,194.58,154.21,188.53,154.21"/>
	<path class="st1" d="M188.09,137.74h0.9c0.46,0,0.83-0.37,0.83-0.83v-2.51c0-0.46-0.37-0.83-0.83-0.83h-0.9
		c-0.46,0-0.83,0.37-0.83,0.83v2.51C187.27,137.37,187.64,137.74,188.09,137.74"/>
	<path class="st1" d="M183.55,140.85l0.45-0.78c0.23-0.39,0.09-0.9-0.3-1.13l-2.17-1.25c-0.4-0.23-0.9-0.09-1.13,0.3l-0.45,0.78
		c-0.23,0.4-0.09,0.9,0.3,1.13l2.17,1.25C182.82,141.38,183.32,141.25,183.55,140.85"/>
	<path class="st1" d="M183.98,146.35l-0.45-0.78c-0.23-0.39-0.73-0.53-1.13-0.3l-2.17,1.25c-0.39,0.23-0.53,0.74-0.3,1.13l0.45,0.78
		c0.23,0.4,0.73,0.53,1.13,0.3l2.17-1.25C184.07,147.25,184.21,146.74,183.98,146.35"/>
	<path class="st1" d="M188.95,148.72h-0.9c-0.46,0-0.83,0.37-0.83,0.83v2.51c0,0.46,0.37,0.83,0.83,0.83h0.9
		c0.46,0,0.83-0.37,0.83-0.83v-2.51C189.77,149.09,189.4,148.72,188.95,148.72"/>
	<path class="st1" d="M193.49,145.61l-0.45,0.78c-0.23,0.39-0.09,0.9,0.3,1.13l2.17,1.25c0.4,0.23,0.9,0.09,1.13-0.3l0.45-0.78
		c0.23-0.4,0.09-0.9-0.3-1.13l-2.17-1.25C194.22,145.08,193.72,145.21,193.49,145.61"/>
	<path class="st1" d="M193.06,140.11l0.45,0.78c0.23,0.39,0.74,0.53,1.13,0.3l2.17-1.25c0.39-0.23,0.53-0.74,0.3-1.13l-0.45-0.78
		c-0.23-0.4-0.73-0.53-1.13-0.3l-2.17,1.25C192.97,139.21,192.83,139.72,193.06,140.11"/>
	<path class="st1" d="M188.53,130.4c-7.09,0-12.84,5.75-12.84,12.84s5.75,12.84,12.84,12.84c7.09,0,12.84-5.75,12.84-12.84
		S195.62,130.4,188.53,130.4 M188.53,151.55c-4.59,0-8.31-3.72-8.31-8.31s3.72-8.31,8.31-8.31c4.59,0,8.31,3.72,8.31,8.31
		S193.11,151.55,188.53,151.55"/>
	<path class="st2" d="M188.52,106.89c-20.08,0-36.36,16.28-36.36,36.36c0,20.08,16.28,36.36,36.36,36.36s36.36-16.28,36.36-36.36
		C224.88,123.17,208.6,106.89,188.52,106.89 M188.52,111.89c3.2,0,6.29,0.49,9.21,1.38l-5.1,15.88c-1.3-0.38-2.68-0.59-4.11-0.59
		c-1.44,0-2.84,0.21-4.16,0.6l-5.1-15.88C182.19,112.38,185.3,111.89,188.52,111.89 M167.6,166.57c-4.29-3.85-7.51-8.86-9.16-14.54
		l16.39-3.54c0.85,2.22,2.23,4.18,3.97,5.73L167.6,166.57z M188.52,154.5c-6.22,0-11.26-5.04-11.26-11.26
		c0-6.22,5.04-11.26,11.26-11.26c6.22,0,11.26,5.04,11.26,11.26C199.78,149.46,194.74,154.5,188.52,154.5 M209.46,166.56
		l-11.2-12.35c1.75-1.55,3.12-3.52,3.97-5.75l16.38,3.54C216.97,157.68,213.75,162.71,209.46,166.56"/>
	<path class="st3" d="M233.8,93.71H66.2c-2.76,0-5,2.24-5,5v102.57c0,2.76,2.24,5,5,5H233.8c2.76,0,5-2.24,5-5V98.72
		C238.81,95.95,236.57,93.71,233.8,93.71 M233.55,159.76c0,1.38-1.12,2.5-2.5,2.5H68.95c-1.38,0-2.5-1.12-2.5-2.5v-33.52
		c0-1.38,1.12-2.5,2.5-2.5h162.1c1.38,0,2.5,1.12,2.5,2.5V159.76z"/>
	<path class="st4" d="M97.82,179.77c-2.85,0-5.33,2.03-5.89,4.83l-4.34,21.69h124.82l-4.34-21.69c-0.56-2.8-3.04-4.83-5.89-4.83
		H97.82z"/>
	<path class="st5" d="M97.82,182.27c-1.66,0-3.11,1.18-3.43,2.82l-4.24,21.2h119.72l-4.24-21.2c-0.32-1.63-1.77-2.82-3.43-2.82
		H97.82z"/>
	<path class="st6" d="M110.81,199.84c0-2.35-1.9-4.25-4.25-4.25s-4.25,1.9-4.25,4.25c0,2.35,1.9,4.25,4.25,4.25
		S110.81,202.19,110.81,199.84"/>
	<path class="st0" d="M109.31,199.84c0-1.52-1.23-2.75-2.75-2.75c-1.52,0-2.75,1.23-2.75,2.75c0,1.52,1.23,2.75,2.75,2.75
		C108.08,202.6,109.31,201.36,109.31,199.84"/>
	<path class="st6" d="M197.7,199.84c0-2.35-1.9-4.25-4.25-4.25c-2.35,0-4.25,1.9-4.25,4.25c0,2.35,1.9,4.25,4.25,4.25
		C195.79,204.1,197.7,202.19,197.7,199.84"/>
	<path class="st0" d="M196.2,199.84c0-1.52-1.23-2.75-2.75-2.75c-1.52,0-2.75,1.23-2.75,2.75c0,1.52,1.23,2.75,2.75,2.75
		C194.97,202.6,196.2,201.36,196.2,199.84"/>
	<path class="st6" d="M127.24,200.28h-5c-0.83,0-1.5-0.67-1.5-1.5v-2.75c0-0.83,0.67-1.5,1.5-1.5h5c0.83,0,1.5,0.67,1.5,1.5v2.75
		C128.74,199.61,128.06,200.28,127.24,200.28"/>
	<rect x="122.23" y="196.03" class="st0" width="5" height="2.75"/>
	<path class="st6" d="M177.77,200.28h-5c-0.83,0-1.5-0.67-1.5-1.5v-2.75c0-0.83,0.67-1.5,1.5-1.5h5c0.83,0,1.5,0.67,1.5,1.5v2.75
		C179.27,199.61,178.6,200.28,177.77,200.28"/>
	<rect x="172.76" y="196.03" class="st0" width="5" height="2.75"/>
	<path class="st7" d="M153.01,192.47c1.66-1.66,1.66-4.35,0-6.01c-1.66-1.66-4.35-1.66-6.01,0s-1.66,4.35,0,6.01
		C148.65,194.13,151.35,194.13,153.01,192.47"/>
	<path class="st5" d="M151.68,190.5l-1.03-1.03l1.03-1.03c0.18-0.18,0.18-0.47,0-0.65c-0.18-0.18-0.47-0.18-0.65,0l-1.03,1.03
		l-1.03-1.03c-0.18-0.18-0.47-0.18-0.65,0c-0.18,0.18-0.18,0.47,0,0.65l1.03,1.03l-1.03,1.03c-0.18,0.18-0.18,0.47,0,0.65
		c0.18,0.18,0.47,0.18,0.65,0l1.03-1.03l1.03,1.03c0.18,0.18,0.47,0.18,0.65,0C151.86,190.97,151.86,190.67,151.68,190.5"/>
	<path class="st7" d="M70.95,97.46c-1.66-1.66-4.35-1.66-6.01,0c-1.66,1.66-1.66,4.35,0,6.01c1.66,1.66,4.35,1.66,6.01,0
		C72.62,101.81,72.62,99.12,70.95,97.46"/>
	<path class="st5" d="M68.98,98.79l-1.03,1.03l-1.03-1.03c-0.18-0.18-0.47-0.18-0.65,0c-0.18,0.18-0.18,0.47,0,0.65l1.03,1.03
		l-1.03,1.03c-0.18,0.18-0.18,0.47,0,0.65c0.18,0.18,0.47,0.18,0.65,0l1.03-1.03l1.03,1.03c0.18,0.18,0.47,0.18,0.65,0
		c0.18-0.18,0.18-0.47,0-0.65l-1.03-1.03l1.03-1.03c0.18-0.18,0.18-0.47,0-0.65C69.45,98.61,69.16,98.61,68.98,98.79"/>
	<path class="st7" d="M236.31,100.47c0-2.35-1.9-4.25-4.25-4.25c-2.35,0-4.25,1.9-4.25,4.25c0,2.35,1.9,4.25,4.25,4.25
		C234.4,104.72,236.31,102.82,236.31,100.47"/>
	<path class="st5" d="M233.97,100.01h-1.46v-1.46c0-0.25-0.21-0.46-0.46-0.46c-0.25,0-0.46,0.21-0.46,0.46v1.46h-1.46
		c-0.25,0-0.46,0.21-0.46,0.46c0,0.25,0.21,0.46,0.46,0.46h1.46v1.46c0,0.25,0.21,0.46,0.46,0.46c0.25,0,0.46-0.21,0.46-0.46v-1.46
		h1.46c0.25,0,0.46-0.21,0.46-0.46C234.43,100.22,234.22,100.01,233.97,100.01"/>
	<path class="st7" d="M72.2,199.53c0-2.35-1.9-4.25-4.25-4.25s-4.25,1.9-4.25,4.25c0,2.35,1.9,4.25,4.25,4.25
		S72.2,201.88,72.2,199.53"/>
	<path class="st5" d="M69.87,199.07h-1.46v-1.46c0-0.25-0.21-0.46-0.46-0.46c-0.25,0-0.46,0.21-0.46,0.46v1.46h-1.46
		c-0.25,0-0.46,0.21-0.46,0.46c0,0.25,0.21,0.46,0.46,0.46h1.46v1.46c0,0.25,0.21,0.46,0.46,0.46c0.25,0,0.46-0.21,0.46-0.46v-1.46
		h1.46c0.25,0,0.46-0.21,0.46-0.46C70.32,199.28,70.12,199.07,69.87,199.07"/>
	<path class="st7" d="M235.06,202.54c1.66-1.66,1.66-4.35,0-6.01c-1.66-1.66-4.35-1.66-6.02,0c-1.66,1.66-1.66,4.35,0,6.01
		C230.71,204.2,233.4,204.2,235.06,202.54"/>
	<path class="st5" d="M233.73,200.56l-1.03-1.03l1.03-1.03c0.18-0.18,0.18-0.47,0-0.65c-0.18-0.18-0.47-0.18-0.65,0l-1.03,1.03
		l-1.03-1.03c-0.18-0.18-0.47-0.18-0.65,0c-0.18,0.18-0.18,0.47,0,0.65l1.03,1.03l-1.03,1.03c-0.18,0.18-0.18,0.47,0,0.65
		c0.18,0.18,0.47,0.18,0.65,0l1.03-1.03l1.03,1.03c0.18,0.18,0.47,0.18,0.65,0C233.91,201.03,233.91,200.74,233.73,200.56"/>
	<path class="st8" d="M231.05,177.27H68.95c-1.38,0-2.5-1.12-2.5-2.5v-6.5c0-1.38,1.12-2.5,2.5-2.5h162.1c1.38,0,2.5,1.12,2.5,2.5
		v6.5C233.55,176.15,232.43,177.27,231.05,177.27"/>
	<path class="st8" d="M231.82,107.22c-3.73,0-6.75-3.03-6.75-6.75v-0.01c0-0.41-0.31-0.74-0.72-0.74H75.19
		c-0.41,0-0.72,0.34-0.72,0.74v0.01c0,3.72-3.03,6.75-6.75,6.75c-0.16,0-0.32-0.01-0.48-0.02c-0.43-0.03-0.79,0.29-0.79,0.72v10.81
		c0,1.38,1.12,2.5,2.5,2.5h162.1c1.38,0,2.5-1.12,2.5-2.5v-10.86c0-0.45-0.4-0.77-0.84-0.71
		C232.42,107.2,232.12,107.22,231.82,107.22"/>
	<path class="st9" d="M128.96,174.93L128.96,174.93c-0.31,0-0.57-0.26-0.57-0.57v-4.19c0-0.31,0.26-0.57,0.57-0.57
		c0.31,0,0.57,0.26,0.57,0.57v4.19C129.53,174.68,129.27,174.93,128.96,174.93"/>
	<path class="st9" d="M139.48,174.93L139.48,174.93c-0.31,0-0.57-0.26-0.57-0.57v-4.19c0-0.31,0.26-0.57,0.57-0.57
		c0.31,0,0.57,0.26,0.57,0.57v4.19C140.05,174.68,139.79,174.93,139.48,174.93"/>
	<path class="st9" d="M150,174.93L150,174.93c-0.31,0-0.57-0.26-0.57-0.57v-4.19c0-0.31,0.26-0.57,0.57-0.57
		c0.31,0,0.57,0.26,0.57,0.57v4.19C150.57,174.68,150.31,174.93,150,174.93"/>
	<path class="st9" d="M160.52,174.93L160.52,174.93c-0.31,0-0.57-0.26-0.57-0.57v-4.19c0-0.31,0.26-0.57,0.57-0.57
		c0.31,0,0.57,0.26,0.57,0.57v4.19C161.09,174.68,160.83,174.93,160.52,174.93"/>
	<path class="st9" d="M171.04,174.93L171.04,174.93c-0.31,0-0.57-0.26-0.57-0.57v-4.19c0-0.31,0.26-0.57,0.57-0.57
		c0.31,0,0.57,0.26,0.57,0.57v4.19C171.61,174.68,171.35,174.93,171.04,174.93"/>
	<path class="st9" d="M77.29,111.14L77.29,111.14c0-0.25,0.21-0.46,0.46-0.46h144.51c0.25,0,0.46,0.21,0.46,0.46
		c0,0.25-0.21,0.46-0.46,0.46H77.74C77.49,111.6,77.29,111.4,77.29,111.14"/>
</g>
</svg>
