<svg width="302" height="85" viewBox="0 0 302 85" fill="none" xmlns="http://www.w3.org/2000/svg">
<g id="Group 1">
<g id="Redefined">
<g id="d">
<path d="M111.976 62.024C111.976 63.9867 112.339 65.416 113.064 66.312C113.789 67.208 115.048 67.656 116.84 67.656V69C115.517 68.872 114.195 68.808 112.872 68.808C110.184 68.808 107.965 69.1067 106.216 69.704V64.008C105.448 65.928 104.296 67.4 102.76 68.424C101.224 69.4053 99.3467 69.896 97.128 69.896C93.032 69.896 89.8107 68.424 87.464 65.48C85.16 62.536 84.0293 58.2267 84.072 52.552C84.072 48.84 84.712 45.6827 85.992 43.08C87.3147 40.4347 89.064 38.4507 91.24 37.128C93.4587 35.8053 95.8907 35.144 98.536 35.144C100.157 35.144 101.629 35.464 102.952 36.104C104.317 36.7013 105.405 37.64 106.216 38.92V26.504C106.216 24.5413 105.853 23.112 105.128 22.216C104.403 21.32 103.144 20.872 101.352 20.872V19.528C102.717 19.656 104.04 19.72 105.32 19.72C108.008 19.72 110.227 19.4213 111.976 18.824V62.024ZM98.984 67.976C100.648 67.976 102.141 67.336 103.464 66.056C104.787 64.776 105.704 62.9627 106.216 60.616V41.544C105.064 38.2587 102.675 36.616 99.048 36.616C96.4027 36.616 94.2693 37.9813 92.648 40.712C91.0267 43.4 90.2373 47.3467 90.28 52.552C90.2373 57.672 90.9627 61.5333 92.456 64.136C93.9493 66.696 96.1253 67.976 98.984 67.976Z" fill="#E03616"/>
<path d="M113.064 66.312L113.841 65.6828L113.841 65.6828L113.064 66.312ZM116.84 67.656H117.84V66.656H116.84V67.656ZM116.84 69L116.744 69.9954L117.84 70.1014V69H116.84ZM106.216 69.704H105.216V71.1022L106.539 70.6503L106.216 69.704ZM106.216 64.008H107.216L105.288 63.6366L106.216 64.008ZM102.76 68.424L103.298 69.2667L103.307 69.2615L103.315 69.2561L102.76 68.424ZM87.464 65.48L86.6765 66.0963L86.682 66.1033L87.464 65.48ZM84.072 52.552L85.072 52.5595V52.552H84.072ZM85.992 43.08L85.0976 42.6328L85.0947 42.6387L85.992 43.08ZM91.24 37.128L90.7279 36.269L90.7206 36.2735L91.24 37.128ZM102.952 36.104L102.516 37.0042L102.534 37.0125L102.551 37.0202L102.952 36.104ZM106.216 38.92L105.371 39.4551L107.216 42.3679V38.92H106.216ZM105.128 22.216L104.351 22.8452L104.351 22.8452L105.128 22.216ZM101.352 20.872H100.352V21.872H101.352V20.872ZM101.352 19.528L101.445 18.5324L100.352 18.4299V19.528H101.352ZM111.976 18.824H112.976V17.4258L111.653 17.8776L111.976 18.824ZM103.464 66.056L102.769 65.3374L102.769 65.3374L103.464 66.056ZM106.216 60.616L107.193 60.8292L107.216 60.7238V60.616H106.216ZM106.216 41.544H107.216V41.3738L107.16 41.2131L106.216 41.544ZM92.648 40.712L93.5043 41.2285L93.5079 41.2225L92.648 40.712ZM90.28 52.552L91.28 52.5603L91.28 52.5521L91.28 52.5438L90.28 52.552ZM92.456 64.136L91.5886 64.6337L91.5922 64.6399L92.456 64.136ZM110.976 62.024C110.976 64.0693 111.346 65.7795 112.287 66.9412L113.841 65.6828C113.331 65.0525 112.976 63.904 112.976 62.024H110.976ZM112.287 66.9412C113.287 68.1772 114.915 68.656 116.84 68.656V66.656C115.181 66.656 114.291 66.2388 113.841 65.6828L112.287 66.9412ZM115.84 67.656V69H117.84V67.656H115.84ZM116.936 68.0046C115.582 67.8736 114.227 67.808 112.872 67.808V69.808C114.162 69.808 115.453 69.8704 116.744 69.9954L116.936 68.0046ZM112.872 67.808C110.119 67.808 107.782 68.1126 105.893 68.7577L106.539 70.6503C108.149 70.1007 110.249 69.808 112.872 69.808V67.808ZM107.216 69.704V64.008H105.216V69.704H107.216ZM105.288 63.6366C104.585 65.3922 103.553 66.6934 102.205 67.5919L103.315 69.2561C105.039 68.1066 106.311 66.4638 107.144 64.3794L105.288 63.6366ZM102.222 67.5813C100.878 68.4396 99.1976 68.896 97.128 68.896V70.896C99.4958 70.896 101.57 70.3711 103.298 69.2667L102.222 67.5813ZM97.128 68.896C93.3057 68.896 90.3846 67.5397 88.246 64.8567L86.682 66.1033C89.2368 69.3083 92.7583 70.896 97.128 70.896V68.896ZM88.2515 64.8637C86.1427 62.1691 85.0302 58.1197 85.072 52.5595L83.072 52.5445C83.0285 58.3336 84.1773 62.9029 86.6765 66.0963L88.2515 64.8637ZM85.072 52.552C85.072 48.9516 85.6931 45.9538 86.8894 43.5213L85.0947 42.6387C83.7309 45.4116 83.072 48.7284 83.072 52.552H85.072ZM86.8864 43.5272C88.1388 41.0225 89.7688 39.1925 91.7594 37.9825L90.7206 36.2735C88.3592 37.7088 86.4906 39.8468 85.0976 42.6328L86.8864 43.5272ZM91.7521 37.9869C93.812 36.7589 96.0664 36.144 98.536 36.144V34.144C95.715 34.144 93.1053 34.8518 90.7279 36.2691L91.7521 37.9869ZM98.536 36.144C100.022 36.144 101.343 36.4364 102.516 37.0042L103.388 35.2038C101.916 34.4916 100.292 34.144 98.536 34.144V36.144ZM102.551 37.0202C103.731 37.5362 104.665 38.3405 105.371 39.4551L107.061 38.3849C106.145 36.9395 104.904 35.8665 103.353 35.1878L102.551 37.0202ZM107.216 38.92V26.504H105.216V38.92H107.216ZM107.216 26.504C107.216 24.4587 106.846 22.7485 105.905 21.5868L104.351 22.8452C104.861 23.4755 105.216 24.6239 105.216 26.504H107.216ZM105.905 21.5868C104.905 20.3508 103.277 19.872 101.352 19.872V21.872C103.011 21.872 103.901 22.2892 104.351 22.8452L105.905 21.5868ZM102.352 20.872V19.528H100.352V20.872H102.352ZM101.259 20.5236C102.653 20.6543 104.007 20.72 105.32 20.72V18.72C104.073 18.72 102.782 18.6577 101.445 18.5324L101.259 20.5236ZM105.32 20.72C108.073 20.72 110.41 20.4154 112.299 19.7703L111.653 17.8776C110.043 18.4273 107.943 18.72 105.32 18.72V20.72ZM110.976 18.824V62.024H112.976V18.824H110.976ZM98.984 68.976C100.936 68.976 102.672 68.2142 104.159 66.7746L102.769 65.3374C101.611 66.4578 100.36 66.976 98.984 66.976V68.976ZM104.159 66.7746C105.661 65.3214 106.652 63.3104 107.193 60.8292L105.239 60.4028C104.756 62.6149 103.912 64.2306 102.769 65.3374L104.159 66.7746ZM107.216 60.616V41.544H105.216V60.616H107.216ZM107.16 41.2131C106.528 39.4114 105.529 37.9881 104.127 37.024C102.728 36.0622 101.013 35.616 99.048 35.616V37.616C100.71 37.616 102.003 37.9911 102.993 38.672C103.98 39.3506 104.752 40.3913 105.272 41.8749L107.16 41.2131ZM99.048 35.616C95.9739 35.616 93.5472 37.2388 91.7881 40.2015L93.5079 41.2225C94.9914 38.7239 96.8314 37.616 99.048 37.616V35.616ZM91.7917 40.1955C90.0311 43.1144 89.2367 47.2788 89.28 52.5602L91.28 52.5438C91.2379 47.4146 92.0222 43.6856 93.5043 41.2285L91.7917 40.1955ZM89.28 52.5437C89.2368 57.731 89.9648 61.8036 91.5886 64.6337L93.3234 63.6383C91.9605 61.2631 91.2379 57.613 91.28 52.5603L89.28 52.5437ZM91.5922 64.6399C93.2567 67.4932 95.7539 68.976 98.984 68.976V66.976C96.4968 66.976 94.642 65.8988 93.3198 63.6321L91.5922 64.6399Z" fill="#E03616"/>
</g>
<g id="e">
<path d="M261.632 61.32C260.864 63.6667 259.413 65.6933 257.28 67.4C255.189 69.064 252.651 69.896 249.664 69.896C246.635 69.896 244.011 69.2133 241.792 67.848C239.573 66.44 237.867 64.4987 236.672 62.024C235.52 59.5067 234.944 56.6053 234.944 53.32C234.944 49.608 235.541 46.3867 236.736 43.656C237.931 40.9253 239.616 38.8347 241.792 37.384C243.968 35.8907 246.507 35.144 249.408 35.144C253.248 35.144 256.192 36.3173 258.24 38.664C260.331 40.968 261.376 44.488 261.376 49.224H241.344C241.216 50.4187 241.152 51.784 241.152 53.32C241.152 56.136 241.6 58.5893 242.496 60.68C243.435 62.7707 244.651 64.392 246.144 65.544C247.68 66.6533 249.28 67.208 250.944 67.208C252.992 67.208 254.805 66.7173 256.384 65.736C257.963 64.7547 259.285 63.112 260.352 60.808L261.632 61.32ZM249.152 36.36C247.147 36.36 245.419 37.3413 243.968 39.304C242.517 41.2667 241.621 44.168 241.28 48.008H255.232C255.317 44.68 254.827 41.9067 253.76 39.688C252.736 37.4693 251.2 36.36 249.152 36.36Z" fill="#E03616"/>
<path d="M261.632 61.32L262.582 61.631L262.874 60.7398L262.003 60.3915L261.632 61.32ZM257.28 67.4L257.903 68.1824L257.905 68.1809L257.28 67.4ZM241.792 67.848L241.256 68.6924L241.268 68.6997L241.792 67.848ZM236.672 62.024L235.763 62.4401L235.767 62.4495L235.771 62.4587L236.672 62.024ZM236.736 43.656L235.82 43.2552L235.82 43.2552L236.736 43.656ZM241.792 37.384L242.347 38.2161L242.358 38.2085L241.792 37.384ZM258.24 38.664L257.487 39.3215L257.493 39.3288L257.499 39.336L258.24 38.664ZM261.376 49.224V50.224H262.376V49.224H261.376ZM241.344 49.224V48.224H240.445L240.35 49.1175L241.344 49.224ZM242.496 60.68L241.577 61.0739L241.58 61.0818L241.584 61.0896L242.496 60.68ZM246.144 65.544L245.533 66.3358L245.546 66.3454L245.559 66.3547L246.144 65.544ZM256.384 65.736L255.856 64.8867L255.856 64.8867L256.384 65.736ZM260.352 60.808L260.723 59.8795L259.843 59.5273L259.445 60.3879L260.352 60.808ZM243.968 39.304L244.772 39.8984L244.772 39.8984L243.968 39.304ZM241.28 48.008L240.284 47.9195L240.187 49.008H241.28V48.008ZM255.232 48.008V49.008H256.207L256.232 48.0336L255.232 48.008ZM253.76 39.688L252.852 40.1071L252.855 40.1142L252.859 40.1213L253.76 39.688ZM260.682 61.009C259.98 63.1512 258.653 65.0206 256.655 66.6191L257.905 68.1809C260.173 66.3661 261.748 64.1821 262.582 61.631L260.682 61.009ZM256.657 66.6176C254.764 68.1241 252.453 68.896 249.664 68.896V70.896C252.849 70.896 255.614 70.0039 257.903 68.1824L256.657 66.6176ZM249.664 68.896C246.789 68.896 244.353 68.2498 242.316 66.9963L241.268 68.6997C243.668 70.1769 246.48 70.896 249.664 70.896V68.896ZM242.328 67.0037C240.274 65.7002 238.69 63.9041 237.573 61.5893L235.771 62.4587C237.043 65.0932 238.873 67.1798 241.256 68.6923L242.328 67.0037ZM237.581 61.6079C236.499 59.2432 235.944 56.4882 235.944 53.32H233.944C233.944 56.7225 234.541 59.7701 235.763 62.4401L237.581 61.6079ZM235.944 53.32C235.944 49.7131 236.525 46.6341 237.652 44.0568L235.82 43.2552C234.558 46.1392 233.944 49.5029 233.944 53.32H235.944ZM237.652 44.0568C238.781 41.4764 240.351 39.5463 242.347 38.216L241.237 36.5519C238.881 38.1231 237.08 40.3743 235.82 43.2552L237.652 44.0568ZM242.358 38.2085C244.351 36.8408 246.688 36.144 249.408 36.144V34.144C246.326 34.144 243.585 34.9405 241.226 36.5595L242.358 38.2085ZM249.408 36.144C253.032 36.144 255.672 37.242 257.487 39.3215L258.993 38.0065C256.712 35.3927 253.464 34.144 249.408 34.144V36.144ZM257.499 39.336C259.355 41.3804 260.376 44.6108 260.376 49.224H262.376C262.376 44.3652 261.307 40.5556 258.981 37.992L257.499 39.336ZM261.376 48.224H241.344V50.224H261.376V48.224ZM240.35 49.1175C240.217 50.3557 240.152 51.7577 240.152 53.32H242.152C242.152 51.8103 242.215 50.4817 242.338 49.3305L240.35 49.1175ZM240.152 53.32C240.152 56.2401 240.616 58.8329 241.577 61.0739L243.415 60.2861C242.584 58.3457 242.152 56.0319 242.152 53.32H240.152ZM241.584 61.0896C242.575 63.2985 243.884 65.0637 245.533 66.3358L246.755 64.7522C245.417 63.7203 244.294 62.2428 243.408 60.2704L241.584 61.0896ZM245.559 66.3547C247.24 67.5693 249.041 68.208 250.944 68.208V66.208C249.519 66.208 248.12 65.7373 246.729 64.7333L245.559 66.3547ZM250.944 68.208C253.159 68.208 255.159 67.675 256.912 66.5853L255.856 64.8867C254.452 65.7597 252.825 66.208 250.944 66.208V68.208ZM256.912 66.5853C258.707 65.4697 260.14 63.6463 261.259 61.2281L259.445 60.3879C258.431 62.5777 257.219 64.0397 255.856 64.8867L256.912 66.5853ZM259.981 61.7365L261.261 62.2485L262.003 60.3915L260.723 59.8795L259.981 61.7365ZM249.152 35.36C246.759 35.36 244.757 36.554 243.164 38.7096L244.772 39.8984C246.08 38.1287 247.534 37.36 249.152 37.36V35.36ZM243.164 38.7096C241.558 40.8824 240.633 43.9931 240.284 47.9195L242.276 48.0965C242.61 44.3429 243.477 41.651 244.772 39.8984L243.164 38.7096ZM241.28 49.008H255.232V47.008H241.28V49.008ZM256.232 48.0336C256.32 44.6003 255.817 41.6577 254.661 39.2547L252.859 40.1213C253.837 42.1556 254.315 44.7597 254.232 47.9824L256.232 48.0336ZM254.668 39.2689C254.104 38.0476 253.368 37.0617 252.425 36.3813C251.473 35.6935 250.368 35.36 249.152 35.36V37.36C249.984 37.36 250.671 37.5812 251.255 38.0027C251.848 38.4316 252.392 39.1097 252.852 40.1071L254.668 39.2689Z" fill="#E03616"/>
</g>
<g id="n">
<path d="M216.36 35.144C219.347 35.144 221.608 35.9547 223.144 37.576C223.955 38.4293 224.531 39.496 224.872 40.776C225.213 42.056 225.384 43.784 225.384 45.96V63.048C225.384 64.7973 225.747 66.0133 226.472 66.696C227.197 67.336 228.456 67.656 230.248 67.656V69C226.323 68.8293 223.763 68.744 222.568 68.744C221.373 68.744 218.984 68.8293 215.4 69V67.656C216.979 67.656 218.067 67.336 218.664 66.696C219.304 66.0133 219.624 64.7973 219.624 63.048V44.552C219.624 42.1627 219.283 40.3493 218.6 39.112C217.917 37.832 216.531 37.192 214.44 37.192C212.691 37.192 211.133 37.704 209.768 38.728C208.403 39.752 207.336 41.16 206.568 42.952C205.843 44.7013 205.48 46.664 205.48 48.84V63.048C205.48 64.7973 205.779 66.0133 206.376 66.696C207.016 67.336 208.125 67.656 209.704 67.656V69C206.12 68.8293 203.731 68.744 202.536 68.744C201.341 68.744 198.781 68.8293 194.856 69V67.656C196.648 67.656 197.907 67.336 198.632 66.696C199.357 66.0133 199.72 64.7973 199.72 63.048V43.016C199.72 41.0533 199.357 39.624 198.632 38.728C197.907 37.832 196.648 37.384 194.856 37.384V36.04C196.221 36.168 197.544 36.232 198.824 36.232C201.512 36.232 203.731 35.9333 205.48 35.336V42.888C206.547 40.1573 208.019 38.1947 209.896 37C211.816 35.7627 213.971 35.144 216.36 35.144Z" fill="#E03616"/>
<path d="M223.144 37.576L222.418 38.2637L222.419 38.2647L223.144 37.576ZM224.872 40.776L225.838 40.5183L224.872 40.776ZM226.472 66.696L225.787 67.4242L225.798 67.4352L225.81 67.4458L226.472 66.696ZM230.248 67.656H231.248V66.656H230.248V67.656ZM230.248 69L230.205 69.9991L231.248 70.0444V69H230.248ZM215.4 69H214.4V70.0488L215.448 69.9989L215.4 69ZM215.4 67.656V66.656H214.4V67.656H215.4ZM218.664 66.696L217.934 66.0121L217.933 66.0137L218.664 66.696ZM218.6 39.112L217.718 39.5826L217.721 39.5889L217.724 39.5951L218.6 39.112ZM209.768 38.728L210.368 39.528L210.368 39.528L209.768 38.728ZM206.568 42.952L205.649 42.5581L205.644 42.569L206.568 42.952ZM206.376 66.696L205.623 67.3545L205.645 67.3796L205.669 67.4031L206.376 66.696ZM209.704 67.656H210.704V66.656H209.704V67.656ZM209.704 69L209.656 69.9989L210.704 70.0488V69H209.704ZM194.856 69H193.856V70.0444L194.899 69.9991L194.856 69ZM194.856 67.656V66.656H193.856V67.656H194.856ZM198.632 66.696L199.294 67.4458L199.306 67.4352L199.317 67.4242L198.632 66.696ZM198.632 38.728L199.409 38.0988L199.409 38.0988L198.632 38.728ZM194.856 37.384H193.856V38.384H194.856V37.384ZM194.856 36.04L194.949 35.0444L193.856 34.9419V36.04H194.856ZM205.48 35.336H206.48V33.9378L205.157 34.3896L205.48 35.336ZM205.48 42.888H204.48L206.411 43.2518L205.48 42.888ZM209.896 37L210.433 37.8437L210.438 37.8406L209.896 37ZM216.36 36.144C219.168 36.144 221.128 36.9023 222.418 38.2637L223.87 36.8883C222.088 35.007 219.525 34.144 216.36 34.144V36.144ZM222.419 38.2647C223.101 38.9823 223.602 39.8947 223.906 41.0337L225.838 40.5183C225.459 39.0973 224.809 37.8764 223.869 36.8872L222.419 38.2647ZM223.906 41.0337C224.215 42.1933 224.384 43.823 224.384 45.96H226.384C226.384 43.745 226.212 41.9187 225.838 40.5183L223.906 41.0337ZM224.384 45.96V63.048H226.384V45.96H224.384ZM224.384 63.048C224.384 64.8787 224.753 66.4514 225.787 67.4242L227.157 65.9678C226.74 65.5753 226.384 64.716 226.384 63.048H224.384ZM225.81 67.4458C226.821 68.3372 228.396 68.656 230.248 68.656V66.656C228.516 66.656 227.574 66.3348 227.134 65.9462L225.81 67.4458ZM229.248 67.656V69H231.248V67.656H229.248ZM230.291 68.0009C226.371 67.8305 223.788 67.744 222.568 67.744V69.744C223.737 69.744 226.274 69.8282 230.205 69.9991L230.291 68.0009ZM222.568 67.744C221.346 67.744 218.932 67.8307 215.352 68.0011L215.448 69.9989C219.036 69.828 221.401 69.744 222.568 69.744V67.744ZM216.4 69V67.656H214.4V69H216.4ZM215.4 68.656C217.051 68.656 218.504 68.3335 219.395 67.3783L217.933 66.0137C217.63 66.3385 216.907 66.656 215.4 66.656V68.656ZM219.394 67.3799C220.306 66.4063 220.624 64.8551 220.624 63.048H218.624C218.624 64.7396 218.302 65.6204 217.934 66.0121L219.394 67.3799ZM220.624 63.048V44.552H218.624V63.048H220.624ZM220.624 44.552C220.624 42.0962 220.278 40.0835 219.476 38.6289L217.724 39.5951C218.287 40.6151 218.624 42.2291 218.624 44.552H220.624ZM219.482 38.6414C218.554 36.901 216.717 36.192 214.44 36.192V38.192C216.344 38.192 217.281 38.763 217.718 39.5826L219.482 38.6414ZM214.44 36.192C212.48 36.192 210.711 36.7707 209.168 37.928L210.368 39.528C211.556 38.6373 212.901 38.192 214.44 38.192V36.192ZM209.168 37.928C207.644 39.0713 206.476 40.6284 205.649 42.5581L207.487 43.3459C208.196 41.6916 209.162 40.4327 210.368 39.528L209.168 37.928ZM205.644 42.569C204.862 44.4565 204.48 46.552 204.48 48.84H206.48C206.48 46.776 206.824 44.9462 207.492 43.335L205.644 42.569ZM204.48 48.84V63.048H206.48V48.84H204.48ZM204.48 63.048C204.48 64.8445 204.773 66.3828 205.623 67.3545L207.129 66.0375C206.784 65.6439 206.48 64.7502 206.48 63.048H204.48ZM205.669 67.4031C206.595 68.3292 208.043 68.656 209.704 68.656V66.656C208.208 66.656 207.437 66.3428 207.083 65.9889L205.669 67.4031ZM208.704 67.656V69H210.704V67.656H208.704ZM209.752 68.0011C206.172 67.8307 203.758 67.744 202.536 67.744V69.744C203.703 69.744 206.068 69.828 209.656 69.9989L209.752 68.0011ZM202.536 67.744C201.316 67.744 198.733 67.8305 194.813 68.0009L194.899 69.9991C198.83 69.8282 201.367 69.744 202.536 69.744V67.744ZM195.856 69V67.656H193.856V69H195.856ZM194.856 68.656C196.708 68.656 198.283 68.3372 199.294 67.4458L197.97 65.9462C197.53 66.3348 196.588 66.656 194.856 66.656V68.656ZM199.317 67.4242C200.351 66.4514 200.72 64.8787 200.72 63.048H198.72C198.72 64.716 198.364 65.5753 197.947 65.9678L199.317 67.4242ZM200.72 63.048V43.016H198.72V63.048H200.72ZM200.72 43.016C200.72 40.9707 200.35 39.2605 199.409 38.0988L197.855 39.3572C198.365 39.9875 198.72 41.1359 198.72 43.016H200.72ZM199.409 38.0988C198.409 36.8628 196.781 36.384 194.856 36.384V38.384C196.515 38.384 197.405 38.8012 197.855 39.3572L199.409 38.0988ZM195.856 37.384V36.04H193.856V37.384H195.856ZM194.763 37.0356C196.157 37.1663 197.511 37.232 198.824 37.232V35.232C197.577 35.232 196.286 35.1697 194.949 35.0444L194.763 37.0356ZM198.824 37.232C201.577 37.232 203.914 36.9274 205.803 36.2823L205.157 34.3896C203.547 34.9393 201.447 35.232 198.824 35.232V37.232ZM204.48 35.336V42.888H206.48V35.336H204.48ZM206.411 43.2518C207.425 40.6565 208.784 38.893 210.433 37.8437L209.359 36.1563C207.253 37.4964 205.668 39.6581 204.549 42.5241L206.411 43.2518ZM210.438 37.8406C212.189 36.7122 214.153 36.144 216.36 36.144V34.144C213.788 34.144 211.443 34.8131 209.354 36.1594L210.438 37.8406Z" fill="#E03616"/>
</g>
<g id="i">
<path d="M183.152 20.04C184.261 20.04 185.221 20.4453 186.032 21.256C186.843 22.0667 187.248 23.0267 187.248 24.136C187.248 25.2453 186.843 26.2053 186.032 27.016C185.221 27.8267 184.261 28.232 183.152 28.232C182.043 28.232 181.083 27.8267 180.272 27.016C179.461 26.2053 179.056 25.2453 179.056 24.136C179.056 23.0267 179.461 22.0667 180.272 21.256C181.083 20.4453 182.043 20.04 183.152 20.04ZM186.48 63.048C186.48 64.7973 186.843 66.0133 187.568 66.696C188.293 67.336 189.552 67.656 191.344 67.656V69C187.419 68.8293 184.837 68.744 183.6 68.744C182.363 68.744 179.781 68.8293 175.856 69V67.656C177.648 67.656 178.907 67.336 179.632 66.696C180.357 66.0133 180.72 64.7973 180.72 63.048V43.016C180.72 41.0533 180.357 39.624 179.632 38.728C178.907 37.832 177.648 37.384 175.856 37.384V36.04C177.221 36.168 178.544 36.232 179.824 36.232C182.512 36.232 184.731 35.9333 186.48 35.336V63.048Z" fill="#E03616"/>
<path d="M186.032 21.256L185.325 21.9631L185.325 21.9631L186.032 21.256ZM186.032 27.016L185.325 26.3089L185.325 26.3089L186.032 27.016ZM187.568 66.696L186.883 67.4242L186.894 67.4352L186.906 67.4458L187.568 66.696ZM191.344 67.656H192.344V66.656H191.344V67.656ZM191.344 69L191.301 69.9991L192.344 70.0444V69H191.344ZM175.856 69H174.856V70.0444L175.899 69.9991L175.856 69ZM175.856 67.656V66.656H174.856V67.656H175.856ZM179.632 66.696L180.294 67.4458L180.306 67.4352L180.317 67.4242L179.632 66.696ZM179.632 38.728L180.409 38.0988L180.409 38.0988L179.632 38.728ZM175.856 37.384H174.856V38.384H175.856V37.384ZM175.856 36.04L175.949 35.0444L174.856 34.9419V36.04H175.856ZM186.48 35.336H187.48V33.9378L186.157 34.3896L186.48 35.336ZM183.152 21.04C183.986 21.04 184.695 21.333 185.325 21.9631L186.739 20.5489C185.748 19.5577 184.536 19.04 183.152 19.04V21.04ZM185.325 21.9631C185.955 22.5932 186.248 23.3016 186.248 24.136H188.248C188.248 22.7517 187.73 21.5401 186.739 20.5489L185.325 21.9631ZM186.248 24.136C186.248 24.9704 185.955 25.6787 185.325 26.3089L186.739 27.7231C187.73 26.7319 188.248 25.5203 188.248 24.136H186.248ZM185.325 26.3089C184.695 26.939 183.986 27.232 183.152 27.232V29.232C184.536 29.232 185.748 28.7143 186.739 27.7231L185.325 26.3089ZM183.152 27.232C182.318 27.232 181.609 26.939 180.979 26.3089L179.565 27.7231C180.556 28.7143 181.768 29.232 183.152 29.232V27.232ZM180.979 26.3089C180.349 25.6787 180.056 24.9704 180.056 24.136H178.056C178.056 25.5203 178.574 26.7319 179.565 27.7231L180.979 26.3089ZM180.056 24.136C180.056 23.3016 180.349 22.5932 180.979 21.9631L179.565 20.5489C178.574 21.5401 178.056 22.7517 178.056 24.136H180.056ZM180.979 21.9631C181.609 21.333 182.318 21.04 183.152 21.04V19.04C181.768 19.04 180.556 19.5577 179.565 20.5489L180.979 21.9631ZM185.48 63.048C185.48 64.8787 185.849 66.4514 186.883 67.4242L188.253 65.9678C187.836 65.5753 187.48 64.716 187.48 63.048H185.48ZM186.906 67.4458C187.917 68.3372 189.492 68.656 191.344 68.656V66.656C189.612 66.656 188.67 66.3348 188.23 65.9462L186.906 67.4458ZM190.344 67.656V69H192.344V67.656H190.344ZM191.387 68.0009C187.467 67.8305 184.863 67.744 183.6 67.744V69.744C184.812 69.744 187.371 69.8282 191.301 69.9991L191.387 68.0009ZM183.6 67.744C182.337 67.744 179.733 67.8305 175.813 68.0009L175.899 69.9991C179.829 69.8282 182.388 69.744 183.6 69.744V67.744ZM176.856 69V67.656H174.856V69H176.856ZM175.856 68.656C177.708 68.656 179.283 68.3372 180.294 67.4458L178.97 65.9462C178.53 66.3348 177.588 66.656 175.856 66.656V68.656ZM180.317 67.4242C181.351 66.4514 181.72 64.8787 181.72 63.048H179.72C179.72 64.716 179.364 65.5753 178.947 65.9678L180.317 67.4242ZM181.72 63.048V43.016H179.72V63.048H181.72ZM181.72 43.016C181.72 40.9707 181.35 39.2605 180.409 38.0988L178.855 39.3572C179.365 39.9875 179.72 41.1359 179.72 43.016H181.72ZM180.409 38.0988C179.409 36.8628 177.781 36.384 175.856 36.384V38.384C177.515 38.384 178.405 38.8012 178.855 39.3572L180.409 38.0988ZM176.856 37.384V36.04H174.856V37.384H176.856ZM175.763 37.0356C177.157 37.1663 178.511 37.232 179.824 37.232V35.232C178.577 35.232 177.286 35.1697 175.949 35.0444L175.763 37.0356ZM179.824 37.232C182.577 37.232 184.914 36.9274 186.803 36.2823L186.157 34.3896C184.547 34.9393 182.447 35.232 179.824 35.232V37.232ZM185.48 35.336V63.048H187.48V35.336H185.48Z" fill="#E03616"/>
</g>
<g id="f">
<path d="M169.664 18.952C171.883 18.952 173.739 19.528 175.232 20.68C176.555 21.7467 177.216 23.0693 177.216 24.648C177.216 25.6293 176.896 26.44 176.256 27.08C175.616 27.72 174.805 28.04 173.824 28.04C172.843 28.04 172.011 27.7413 171.328 27.144C170.645 26.504 170.304 25.6507 170.304 24.584C170.304 23.688 170.539 22.9627 171.008 22.408C171.52 21.8533 172.181 21.4907 172.992 21.32C172.864 20.8933 172.523 20.552 171.968 20.296C171.413 20.04 170.709 19.912 169.856 19.912C168.917 19.912 168.085 20.1253 167.36 20.552C166.635 20.9787 166.08 21.5547 165.696 22.28C165.227 23.1333 164.907 24.392 164.736 26.056C164.608 27.72 164.544 30.5147 164.544 34.44V36.104H171.392V37.384H164.544V62.408C164.544 64.3707 165.099 65.736 166.208 66.504C167.36 67.272 169.067 67.656 171.328 67.656V69L169.792 68.936C165.44 68.808 162.667 68.744 161.472 68.744C160.363 68.744 157.845 68.8293 153.92 69V67.656C155.712 67.656 156.971 67.336 157.696 66.696C158.421 66.0133 158.784 64.7973 158.784 63.048V37.384H153.664V36.104H158.784C158.784 32.3493 159.019 29.448 159.488 27.4C159.957 25.352 160.811 23.6027 162.048 22.152C162.901 21.1707 163.989 20.4027 165.312 19.848C166.635 19.2507 168.085 18.952 169.664 18.952Z" fill="#E03616"/>
<path d="M175.232 20.68L175.86 19.9016L175.851 19.8948L175.843 19.8882L175.232 20.68ZM176.256 27.08L175.549 26.3729L175.549 26.3729L176.256 27.08ZM171.328 27.144L170.644 27.8735L170.657 27.8853L170.669 27.8966L171.328 27.144ZM171.008 22.408L170.273 21.7297L170.259 21.7456L170.245 21.7621L171.008 22.408ZM172.992 21.32L173.198 22.2985L174.262 22.0745L173.95 21.0326L172.992 21.32ZM171.968 20.296L171.549 21.204L171.549 21.204L171.968 20.296ZM167.36 20.552L167.867 21.4139L167.867 21.4139L167.36 20.552ZM165.696 22.28L166.572 22.7619L166.576 22.7549L166.58 22.7479L165.696 22.28ZM164.736 26.056L163.741 25.954L163.74 25.9666L163.739 25.9793L164.736 26.056ZM164.544 36.104H163.544V37.104H164.544V36.104ZM171.392 36.104H172.392V35.104H171.392V36.104ZM171.392 37.384V38.384H172.392V37.384H171.392ZM164.544 37.384V36.384H163.544V37.384H164.544ZM166.208 66.504L165.639 67.3262L165.646 67.3312L165.653 67.3361L166.208 66.504ZM171.328 67.656H172.328V66.656H171.328V67.656ZM171.328 69L171.286 69.9991L172.328 70.0425V69H171.328ZM169.792 68.936L169.834 67.9368L169.821 67.9364L169.792 68.936ZM153.92 69H152.92V70.0444L153.963 69.9991L153.92 69ZM153.92 67.656V66.656H152.92V67.656H153.92ZM157.696 66.696L158.358 67.4458L158.37 67.4352L158.381 67.4242L157.696 66.696ZM158.784 37.384H159.784V36.384H158.784V37.384ZM153.664 37.384H152.664V38.384H153.664V37.384ZM153.664 36.104V35.104H152.664V36.104H153.664ZM158.784 36.104V37.104H159.784V36.104H158.784ZM162.048 22.152L161.293 21.4958L161.287 21.5031L162.048 22.152ZM165.312 19.848L165.699 20.7702L165.711 20.765L165.724 20.7594L165.312 19.848ZM169.664 19.952C171.702 19.952 173.332 20.4776 174.621 21.4718L175.843 19.8882C174.145 18.5784 172.063 17.952 169.664 17.952V19.952ZM174.604 21.4584C175.712 22.3518 176.216 23.3972 176.216 24.648H178.216C178.216 22.7414 177.397 21.1415 175.86 19.9016L174.604 21.4584ZM176.216 24.648C176.216 25.3888 175.985 25.9372 175.549 26.3729L176.963 27.7871C177.807 26.9428 178.216 25.8699 178.216 24.648H176.216ZM175.549 26.3729C175.113 26.8086 174.565 27.04 173.824 27.04V29.04C175.046 29.04 176.119 28.6314 176.963 27.7871L175.549 26.3729ZM173.824 27.04C173.063 27.04 172.471 26.8157 171.987 26.3914L170.669 27.8966C171.55 28.667 172.622 29.04 173.824 29.04V27.04ZM172.012 26.4145C171.56 25.9907 171.304 25.4167 171.304 24.584H169.304C169.304 25.8846 169.731 27.0173 170.644 27.8735L172.012 26.4145ZM171.304 24.584C171.304 23.8674 171.488 23.3888 171.771 23.0539L170.245 21.7621C169.589 22.5365 169.304 23.5086 169.304 24.584H171.304ZM171.743 23.0863C172.1 22.6991 172.57 22.4308 173.198 22.2985L172.786 20.3414C171.793 20.5505 170.94 21.0076 170.273 21.7297L171.743 23.0863ZM173.95 21.0326C173.712 20.2405 173.101 19.7176 172.387 19.388L171.549 21.204C171.944 21.3864 172.016 21.5461 172.034 21.6073L173.95 21.0326ZM172.387 19.388C171.66 19.0523 170.8 18.912 169.856 18.912V20.912C170.618 20.912 171.167 21.0277 171.549 21.204L172.387 19.388ZM169.856 18.912C168.76 18.912 167.749 19.1629 166.853 19.6901L167.867 21.4139C168.421 21.0878 169.075 20.912 169.856 20.912V18.912ZM166.853 19.6901C165.972 20.2081 165.285 20.9188 164.812 21.8121L166.58 22.7479C166.875 22.1906 167.297 21.7492 167.867 21.4139L166.853 19.6901ZM164.82 21.7981C164.255 22.8242 163.917 24.2387 163.741 25.954L165.731 26.158C165.896 24.5453 166.198 23.4424 166.572 22.7619L164.82 21.7981ZM163.739 25.9793C163.608 27.6853 163.544 30.5139 163.544 34.44H165.544C165.544 30.5154 165.608 27.7547 165.733 26.1327L163.739 25.9793ZM163.544 34.44V36.104H165.544V34.44H163.544ZM164.544 37.104H171.392V35.104H164.544V37.104ZM170.392 36.104V37.384H172.392V36.104H170.392ZM171.392 36.384H164.544V38.384H171.392V36.384ZM163.544 37.384V62.408H165.544V37.384H163.544ZM163.544 62.408C163.544 64.54 164.151 66.2963 165.639 67.3262L166.777 65.6818C166.046 65.1757 165.544 64.2014 165.544 62.408H163.544ZM165.653 67.3361C167.044 68.2629 168.983 68.656 171.328 68.656V66.656C169.151 66.656 167.676 66.2811 166.763 65.6719L165.653 67.3361ZM170.328 67.656V69H172.328V67.656H170.328ZM171.37 68.0009L169.834 67.9369L169.75 69.9351L171.286 69.9991L171.37 68.0009ZM169.821 67.9364C165.474 67.8086 162.684 67.744 161.472 67.744V69.744C162.649 69.744 165.406 69.8074 169.763 69.9356L169.821 67.9364ZM161.472 67.744C160.337 67.744 157.796 67.8305 153.877 68.0009L153.963 69.9991C157.895 69.8281 160.389 69.744 161.472 69.744V67.744ZM154.92 69V67.656H152.92V69H154.92ZM153.92 68.656C155.772 68.656 157.347 68.3372 158.358 67.4458L157.034 65.9462C156.594 66.3348 155.652 66.656 153.92 66.656V68.656ZM158.381 67.4242C159.415 66.4514 159.784 64.8787 159.784 63.048H157.784C157.784 64.716 157.428 65.5753 157.011 65.9678L158.381 67.4242ZM159.784 63.048V37.384H157.784V63.048H159.784ZM158.784 36.384H153.664V38.384H158.784V36.384ZM154.664 37.384V36.104H152.664V37.384H154.664ZM153.664 37.104H158.784V35.104H153.664V37.104ZM159.784 36.104C159.784 32.3756 160.018 29.5622 160.463 27.6234L158.513 27.1766C158.019 29.3338 157.784 32.323 157.784 36.104H159.784ZM160.463 27.6234C160.9 25.7161 161.686 24.1169 162.809 22.8009L161.287 21.5031C159.935 23.0884 159.015 24.9879 158.513 27.1766L160.463 27.6234ZM162.803 22.8082C163.545 21.954 164.503 21.2717 165.699 20.7702L164.925 18.9258C163.476 19.5336 162.257 20.3873 161.293 21.4958L162.803 22.8082ZM165.724 20.7594C166.906 20.2254 168.215 19.952 169.664 19.952V17.952C167.956 17.952 166.363 18.2759 164.9 18.9366L165.724 20.7594Z" fill="#E03616"/>
</g>
<g id="e_2">
<path d="M148.632 61.32C147.864 63.6667 146.413 65.6933 144.28 67.4C142.189 69.064 139.651 69.896 136.664 69.896C133.635 69.896 131.011 69.2133 128.792 67.848C126.573 66.44 124.867 64.4987 123.672 62.024C122.52 59.5067 121.944 56.6053 121.944 53.32C121.944 49.608 122.541 46.3867 123.736 43.656C124.931 40.9253 126.616 38.8347 128.792 37.384C130.968 35.8907 133.507 35.144 136.408 35.144C140.248 35.144 143.192 36.3173 145.24 38.664C147.331 40.968 148.376 44.488 148.376 49.224H128.344C128.216 50.4187 128.152 51.784 128.152 53.32C128.152 56.136 128.6 58.5893 129.496 60.68C130.435 62.7707 131.651 64.392 133.144 65.544C134.68 66.6533 136.28 67.208 137.944 67.208C139.992 67.208 141.805 66.7173 143.384 65.736C144.963 64.7547 146.285 63.112 147.352 60.808L148.632 61.32ZM136.152 36.36C134.147 36.36 132.419 37.3413 130.968 39.304C129.517 41.2667 128.621 44.168 128.28 48.008H142.232C142.317 44.68 141.827 41.9067 140.76 39.688C139.736 37.4693 138.2 36.36 136.152 36.36Z" fill="#E03616"/>
<path d="M148.632 61.32L149.582 61.631L149.874 60.7398L149.003 60.3915L148.632 61.32ZM144.28 67.4L144.903 68.1824L144.905 68.1809L144.28 67.4ZM128.792 67.848L128.256 68.6924L128.268 68.6997L128.792 67.848ZM123.672 62.024L122.763 62.4401L122.767 62.4495L122.771 62.4587L123.672 62.024ZM123.736 43.656L122.82 43.2552L122.82 43.2552L123.736 43.656ZM128.792 37.384L129.347 38.2161L129.358 38.2085L128.792 37.384ZM145.24 38.664L144.487 39.3215L144.493 39.3288L144.499 39.336L145.24 38.664ZM148.376 49.224V50.224H149.376V49.224H148.376ZM128.344 49.224V48.224H127.445L127.35 49.1175L128.344 49.224ZM129.496 60.68L128.577 61.0739L128.58 61.0818L128.584 61.0896L129.496 60.68ZM133.144 65.544L132.533 66.3358L132.546 66.3454L132.559 66.3547L133.144 65.544ZM143.384 65.736L142.856 64.8867L142.856 64.8867L143.384 65.736ZM147.352 60.808L147.723 59.8795L146.843 59.5273L146.445 60.3879L147.352 60.808ZM130.968 39.304L131.772 39.8984L131.772 39.8984L130.968 39.304ZM128.28 48.008L127.284 47.9195L127.187 49.008H128.28V48.008ZM142.232 48.008V49.008H143.207L143.232 48.0336L142.232 48.008ZM140.76 39.688L139.852 40.1071L139.855 40.1142L139.859 40.1213L140.76 39.688ZM147.682 61.009C146.98 63.1512 145.653 65.0206 143.655 66.6191L144.905 68.1809C147.173 66.3661 148.748 64.1821 149.582 61.631L147.682 61.009ZM143.657 66.6176C141.764 68.1241 139.453 68.896 136.664 68.896V70.896C139.849 70.896 142.614 70.0039 144.903 68.1824L143.657 66.6176ZM136.664 68.896C133.789 68.896 131.353 68.2498 129.316 66.9963L128.268 68.6997C130.668 70.1769 133.48 70.896 136.664 70.896V68.896ZM129.328 67.0037C127.274 65.7002 125.69 63.9041 124.573 61.5893L122.771 62.4587C124.043 65.0932 125.873 67.1798 128.256 68.6923L129.328 67.0037ZM124.581 61.6079C123.499 59.2432 122.944 56.4882 122.944 53.32H120.944C120.944 56.7225 121.541 59.7701 122.763 62.4401L124.581 61.6079ZM122.944 53.32C122.944 49.7131 123.525 46.6341 124.652 44.0568L122.82 43.2552C121.558 46.1392 120.944 49.5029 120.944 53.32H122.944ZM124.652 44.0568C125.781 41.4764 127.351 39.5463 129.347 38.216L128.237 36.5519C125.881 38.1231 124.08 40.3743 122.82 43.2552L124.652 44.0568ZM129.358 38.2085C131.351 36.8408 133.688 36.144 136.408 36.144V34.144C133.326 34.144 130.585 34.9405 128.226 36.5595L129.358 38.2085ZM136.408 36.144C140.032 36.144 142.672 37.242 144.487 39.3215L145.993 38.0065C143.712 35.3927 140.464 34.144 136.408 34.144V36.144ZM144.499 39.336C146.355 41.3804 147.376 44.6108 147.376 49.224H149.376C149.376 44.3652 148.307 40.5556 145.981 37.992L144.499 39.336ZM148.376 48.224H128.344V50.224H148.376V48.224ZM127.35 49.1175C127.217 50.3557 127.152 51.7577 127.152 53.32H129.152C129.152 51.8103 129.215 50.4817 129.338 49.3305L127.35 49.1175ZM127.152 53.32C127.152 56.2401 127.616 58.8329 128.577 61.0739L130.415 60.2861C129.584 58.3457 129.152 56.0319 129.152 53.32H127.152ZM128.584 61.0896C129.575 63.2985 130.884 65.0637 132.533 66.3358L133.755 64.7522C132.417 63.7203 131.294 62.2428 130.408 60.2704L128.584 61.0896ZM132.559 66.3547C134.24 67.5693 136.041 68.208 137.944 68.208V66.208C136.519 66.208 135.12 65.7373 133.729 64.7333L132.559 66.3547ZM137.944 68.208C140.159 68.208 142.159 67.675 143.912 66.5853L142.856 64.8867C141.452 65.7597 139.825 66.208 137.944 66.208V68.208ZM143.912 66.5853C145.707 65.4697 147.14 63.6463 148.259 61.2281L146.445 60.3879C145.431 62.5777 144.219 64.0397 142.856 64.8867L143.912 66.5853ZM146.981 61.7365L148.261 62.2485L149.003 60.3915L147.723 59.8795L146.981 61.7365ZM136.152 35.36C133.759 35.36 131.757 36.554 130.164 38.7096L131.772 39.8984C133.08 38.1287 134.534 37.36 136.152 37.36V35.36ZM130.164 38.7096C128.558 40.8824 127.633 43.9931 127.284 47.9195L129.276 48.0965C129.61 44.3429 130.477 41.651 131.772 39.8984L130.164 38.7096ZM128.28 49.008H142.232V47.008H128.28V49.008ZM143.232 48.0336C143.32 44.6003 142.817 41.6577 141.661 39.2547L139.859 40.1213C140.837 42.1556 141.315 44.7597 141.232 47.9824L143.232 48.0336ZM141.668 39.2689C141.104 38.0476 140.368 37.0617 139.425 36.3813C138.473 35.6935 137.368 35.36 136.152 35.36V37.36C136.984 37.36 137.671 37.5812 138.255 38.0027C138.848 38.4316 139.392 39.1097 139.852 40.1071L141.668 39.2689Z" fill="#E03616"/>
</g>
<g id="d_2">
<path d="M295.976 62.024C295.976 63.9867 296.339 65.416 297.064 66.312C297.789 67.208 299.048 67.656 300.84 67.656V69C299.517 68.872 298.195 68.808 296.872 68.808C294.184 68.808 291.965 69.1067 290.216 69.704V64.008C289.448 65.928 288.296 67.4 286.76 68.424C285.224 69.4053 283.347 69.896 281.128 69.896C277.032 69.896 273.811 68.424 271.464 65.48C269.16 62.536 268.029 58.2267 268.072 52.552C268.072 48.84 268.712 45.6827 269.992 43.08C271.315 40.4347 273.064 38.4507 275.24 37.128C277.459 35.8053 279.891 35.144 282.536 35.144C284.157 35.144 285.629 35.464 286.952 36.104C288.317 36.7013 289.405 37.64 290.216 38.92V26.504C290.216 24.5413 289.853 23.112 289.128 22.216C288.403 21.32 287.144 20.872 285.352 20.872V19.528C286.717 19.656 288.04 19.72 289.32 19.72C292.008 19.72 294.227 19.4213 295.976 18.824V62.024ZM282.984 67.976C284.648 67.976 286.141 67.336 287.464 66.056C288.787 64.776 289.704 62.9627 290.216 60.616V41.544C289.064 38.2587 286.675 36.616 283.048 36.616C280.403 36.616 278.269 37.9813 276.648 40.712C275.027 43.4 274.237 47.3467 274.28 52.552C274.237 57.672 274.963 61.5333 276.456 64.136C277.949 66.696 280.125 67.976 282.984 67.976Z" fill="#E03616"/>
<path d="M297.064 66.312L297.841 65.6828L297.841 65.6828L297.064 66.312ZM300.84 67.656H301.84V66.656H300.84V67.656ZM300.84 69L300.744 69.9954L301.84 70.1014V69H300.84ZM290.216 69.704H289.216V71.1022L290.539 70.6503L290.216 69.704ZM290.216 64.008H291.216L289.288 63.6366L290.216 64.008ZM286.76 68.424L287.298 69.2667L287.307 69.2615L287.315 69.2561L286.76 68.424ZM271.464 65.48L270.676 66.0963L270.682 66.1033L271.464 65.48ZM268.072 52.552L269.072 52.5595V52.552H268.072ZM269.992 43.08L269.098 42.6328L269.095 42.6387L269.992 43.08ZM275.24 37.128L274.728 36.269L274.721 36.2735L275.24 37.128ZM286.952 36.104L286.516 37.0042L286.534 37.0125L286.551 37.0202L286.952 36.104ZM290.216 38.92L289.371 39.4551L291.216 42.3679V38.92H290.216ZM289.128 22.216L288.351 22.8452L288.351 22.8452L289.128 22.216ZM285.352 20.872H284.352V21.872H285.352V20.872ZM285.352 19.528L285.445 18.5324L284.352 18.4299V19.528H285.352ZM295.976 18.824H296.976V17.4258L295.653 17.8776L295.976 18.824ZM287.464 66.056L286.769 65.3374L286.769 65.3374L287.464 66.056ZM290.216 60.616L291.193 60.8292L291.216 60.7238V60.616H290.216ZM290.216 41.544H291.216V41.3738L291.16 41.2131L290.216 41.544ZM276.648 40.712L277.504 41.2285L277.508 41.2225L276.648 40.712ZM274.28 52.552L275.28 52.5603L275.28 52.5521L275.28 52.5438L274.28 52.552ZM276.456 64.136L275.589 64.6337L275.592 64.6399L276.456 64.136ZM294.976 62.024C294.976 64.0693 295.346 65.7795 296.287 66.9412L297.841 65.6828C297.331 65.0525 296.976 63.904 296.976 62.024H294.976ZM296.287 66.9412C297.287 68.1772 298.915 68.656 300.84 68.656V66.656C299.181 66.656 298.291 66.2388 297.841 65.6828L296.287 66.9412ZM299.84 67.656V69H301.84V67.656H299.84ZM300.936 68.0046C299.582 67.8736 298.227 67.808 296.872 67.808V69.808C298.162 69.808 299.453 69.8704 300.744 69.9954L300.936 68.0046ZM296.872 67.808C294.119 67.808 291.782 68.1126 289.893 68.7577L290.539 70.6503C292.149 70.1007 294.249 69.808 296.872 69.808V67.808ZM291.216 69.704V64.008H289.216V69.704H291.216ZM289.288 63.6366C288.585 65.3922 287.553 66.6934 286.205 67.5919L287.315 69.2561C289.039 68.1066 290.311 66.4638 291.144 64.3794L289.288 63.6366ZM286.222 67.5813C284.878 68.4396 283.198 68.896 281.128 68.896V70.896C283.496 70.896 285.57 70.3711 287.298 69.2667L286.222 67.5813ZM281.128 68.896C277.306 68.896 274.385 67.5397 272.246 64.8567L270.682 66.1033C273.237 69.3083 276.758 70.896 281.128 70.896V68.896ZM272.252 64.8637C270.143 62.1691 269.03 58.1197 269.072 52.5595L267.072 52.5445C267.029 58.3336 268.177 62.9029 270.676 66.0963L272.252 64.8637ZM269.072 52.552C269.072 48.9516 269.693 45.9538 270.889 43.5213L269.095 42.6387C267.731 45.4116 267.072 48.7284 267.072 52.552H269.072ZM270.886 43.5272C272.139 41.0225 273.769 39.1925 275.759 37.9825L274.721 36.2735C272.359 37.7088 270.491 39.8468 269.098 42.6328L270.886 43.5272ZM275.752 37.9869C277.812 36.7589 280.066 36.144 282.536 36.144V34.144C279.715 34.144 277.105 34.8518 274.728 36.2691L275.752 37.9869ZM282.536 36.144C284.022 36.144 285.343 36.4364 286.516 37.0042L287.388 35.2038C285.916 34.4916 284.292 34.144 282.536 34.144V36.144ZM286.551 37.0202C287.731 37.5362 288.665 38.3405 289.371 39.4551L291.061 38.3849C290.145 36.9395 288.904 35.8665 287.353 35.1878L286.551 37.0202ZM291.216 38.92V26.504H289.216V38.92H291.216ZM291.216 26.504C291.216 24.4587 290.846 22.7485 289.905 21.5868L288.351 22.8452C288.861 23.4755 289.216 24.6239 289.216 26.504H291.216ZM289.905 21.5868C288.905 20.3508 287.277 19.872 285.352 19.872V21.872C287.011 21.872 287.901 22.2892 288.351 22.8452L289.905 21.5868ZM286.352 20.872V19.528H284.352V20.872H286.352ZM285.259 20.5236C286.653 20.6543 288.007 20.72 289.32 20.72V18.72C288.073 18.72 286.782 18.6577 285.445 18.5324L285.259 20.5236ZM289.32 20.72C292.073 20.72 294.41 20.4154 296.299 19.7703L295.653 17.8776C294.043 18.4273 291.943 18.72 289.32 18.72V20.72ZM294.976 18.824V62.024H296.976V18.824H294.976ZM282.984 68.976C284.936 68.976 286.672 68.2142 288.159 66.7746L286.769 65.3374C285.611 66.4578 284.36 66.976 282.984 66.976V68.976ZM288.159 66.7746C289.661 65.3214 290.652 63.3104 291.193 60.8292L289.239 60.4028C288.756 62.6149 287.912 64.2306 286.769 65.3374L288.159 66.7746ZM291.216 60.616V41.544H289.216V60.616H291.216ZM291.16 41.2131C290.528 39.4114 289.529 37.9881 288.127 37.024C286.728 36.0622 285.013 35.616 283.048 35.616V37.616C284.71 37.616 286.003 37.9911 286.993 38.672C287.98 39.3506 288.752 40.3913 289.272 41.8749L291.16 41.2131ZM283.048 35.616C279.974 35.616 277.547 37.2388 275.788 40.2015L277.508 41.2225C278.991 38.7239 280.831 37.616 283.048 37.616V35.616ZM275.792 40.1955C274.031 43.1144 273.237 47.2788 273.28 52.5602L275.28 52.5438C275.238 47.4146 276.022 43.6856 277.504 41.2285L275.792 40.1955ZM273.28 52.5437C273.237 57.731 273.965 61.8036 275.589 64.6337L277.323 63.6383C275.961 61.2631 275.238 57.613 275.28 52.5603L273.28 52.5437ZM275.592 64.6399C277.257 67.4932 279.754 68.976 282.984 68.976V66.976C280.497 66.976 278.642 65.8988 277.32 63.6321L275.592 64.6399Z" fill="#E03616"/>
</g>
<g id="e_3">
<mask id="path-15-outside-1" maskUnits="userSpaceOnUse" x="49.944" y="34.144" width="29" height="37" fill="black">
<rect fill="white" x="49.944" y="34.144" width="29" height="37"/>
<path d="M77.632 61.32C76.864 63.6667 75.4133 65.6933 73.28 67.4C71.1893 69.064 68.6507 69.896 65.664 69.896C62.6347 69.896 60.0107 69.2133 57.792 67.848C55.5733 66.44 53.8667 64.4987 52.672 62.024C51.52 59.5067 50.944 56.6053 50.944 53.32C50.944 49.608 51.5413 46.3867 52.736 43.656C53.9307 40.9253 55.616 38.8347 57.792 37.384C59.968 35.8906 62.5067 35.144 65.408 35.144C69.248 35.144 72.192 36.3173 74.24 38.664C76.3307 40.968 77.376 44.488 77.376 49.224H57.344C57.216 50.4187 57.152 51.784 57.152 53.32C57.152 56.136 57.6 58.5893 58.496 60.68C59.4347 62.7707 60.6507 64.392 62.144 65.544C63.68 66.6533 65.28 67.208 66.944 67.208C68.992 67.208 70.8053 66.7173 72.384 65.736C73.9627 64.7547 75.2853 63.112 76.352 60.808L77.632 61.32ZM65.152 36.36C63.1467 36.36 61.4187 37.3413 59.968 39.304C58.5173 41.2667 57.6213 44.168 57.28 48.008H71.232C71.3173 44.68 70.8267 41.9066 69.76 39.688C68.736 37.4693 67.2 36.36 65.152 36.36Z"/>
</mask>
<path d="M77.632 61.32C76.864 63.6667 75.4133 65.6933 73.28 67.4C71.1893 69.064 68.6507 69.896 65.664 69.896C62.6347 69.896 60.0107 69.2133 57.792 67.848C55.5733 66.44 53.8667 64.4987 52.672 62.024C51.52 59.5067 50.944 56.6053 50.944 53.32C50.944 49.608 51.5413 46.3867 52.736 43.656C53.9307 40.9253 55.616 38.8347 57.792 37.384C59.968 35.8906 62.5067 35.144 65.408 35.144C69.248 35.144 72.192 36.3173 74.24 38.664C76.3307 40.968 77.376 44.488 77.376 49.224H57.344C57.216 50.4187 57.152 51.784 57.152 53.32C57.152 56.136 57.6 58.5893 58.496 60.68C59.4347 62.7707 60.6507 64.392 62.144 65.544C63.68 66.6533 65.28 67.208 66.944 67.208C68.992 67.208 70.8053 66.7173 72.384 65.736C73.9627 64.7547 75.2853 63.112 76.352 60.808L77.632 61.32ZM65.152 36.36C63.1467 36.36 61.4187 37.3413 59.968 39.304C58.5173 41.2667 57.6213 44.168 57.28 48.008H71.232C71.3173 44.68 70.8267 41.9066 69.76 39.688C68.736 37.4693 67.2 36.36 65.152 36.36Z" fill="#E03616"/>
<path d="M77.632 61.32C76.864 63.6667 75.4133 65.6933 73.28 67.4C71.1893 69.064 68.6507 69.896 65.664 69.896C62.6347 69.896 60.0107 69.2133 57.792 67.848C55.5733 66.44 53.8667 64.4987 52.672 62.024C51.52 59.5067 50.944 56.6053 50.944 53.32C50.944 49.608 51.5413 46.3867 52.736 43.656C53.9307 40.9253 55.616 38.8347 57.792 37.384C59.968 35.8906 62.5067 35.144 65.408 35.144C69.248 35.144 72.192 36.3173 74.24 38.664C76.3307 40.968 77.376 44.488 77.376 49.224H57.344C57.216 50.4187 57.152 51.784 57.152 53.32C57.152 56.136 57.6 58.5893 58.496 60.68C59.4347 62.7707 60.6507 64.392 62.144 65.544C63.68 66.6533 65.28 67.208 66.944 67.208C68.992 67.208 70.8053 66.7173 72.384 65.736C73.9627 64.7547 75.2853 63.112 76.352 60.808L77.632 61.32ZM65.152 36.36C63.1467 36.36 61.4187 37.3413 59.968 39.304C58.5173 41.2667 57.6213 44.168 57.28 48.008H71.232C71.3173 44.68 70.8267 41.9066 69.76 39.688C68.736 37.4693 67.2 36.36 65.152 36.36Z" stroke="#E03616" stroke-width="2" mask="url(#path-15-outside-1)"/>
</g>
<g id="R">
<mask id="path-16-outside-2" maskUnits="userSpaceOnUse" x="1.68799" y="21.688" width="42" height="50" fill="black">
<rect fill="white" x="1.68799" y="21.688" width="42" height="50"/>
<path d="M42.24 65.8C41.2587 67.2507 40.2773 68.296 39.296 68.936C38.3147 69.576 37.0133 69.896 35.392 69.896C33.6427 69.896 32.192 69.384 31.04 68.36C29.9307 67.336 29.0987 65.544 28.544 62.984L27.136 56.584C26.624 54.3653 26.1333 52.6587 25.664 51.464C25.2373 50.2693 24.576 49.3093 23.68 48.584C22.784 47.8587 21.5253 47.496 19.904 47.496H13.824V62.216C13.824 63.8373 13.952 65.0107 14.208 65.736C14.464 66.4613 14.9333 66.952 15.616 67.208C16.3413 67.464 17.472 67.6347 19.008 67.72V69C17.0453 68.872 14.336 68.808 10.88 68.808C7.21065 68.808 4.47999 68.872 2.68799 69V67.72C4.22399 67.6347 5.33332 67.464 6.01599 67.208C6.74132 66.952 7.23199 66.4613 7.48799 65.736C7.74399 65.0107 7.87199 63.8373 7.87199 62.216V30.472C7.87199 28.8507 7.74399 27.6773 7.48799 26.952C7.23199 26.2267 6.74132 25.736 6.01599 25.48C5.33332 25.224 4.22399 25.0533 2.68799 24.968V23.688C4.47999 23.816 7.08266 23.88 10.496 23.88L17.408 23.816C18.2187 23.7733 19.136 23.752 20.16 23.752C25.1093 23.752 28.9067 24.7973 31.552 26.888C34.24 28.936 35.584 31.6027 35.584 34.888C35.584 36.552 35.1787 38.2373 34.368 39.944C33.6 41.608 32.2773 43.1227 30.4 44.488C28.5653 45.8107 26.1547 46.7067 23.168 47.176L23.936 47.304C26.752 47.7733 28.8 48.6267 30.08 49.864C31.36 51.1013 32.2987 53.064 32.896 55.752L34.496 62.28C34.9227 64.2427 35.3707 65.608 35.84 66.376C36.3093 67.144 36.9493 67.528 37.76 67.528C38.4853 67.528 39.0827 67.336 39.552 66.952C40.064 66.568 40.64 65.9493 41.28 65.096L42.24 65.8ZM18.56 24.968C17.2373 24.968 16.2347 25.1173 15.552 25.416C14.912 25.7147 14.464 26.248 14.208 27.016C13.952 27.784 13.824 28.936 13.824 30.472V46.216H18.112C22.336 46.216 25.2373 45.2773 26.816 43.4C28.3947 41.5227 29.184 38.92 29.184 35.592C29.184 32.0933 28.352 29.448 26.688 27.656C25.024 25.864 22.3147 24.968 18.56 24.968Z"/>
</mask>
<path d="M42.24 65.8C41.2587 67.2507 40.2773 68.296 39.296 68.936C38.3147 69.576 37.0133 69.896 35.392 69.896C33.6427 69.896 32.192 69.384 31.04 68.36C29.9307 67.336 29.0987 65.544 28.544 62.984L27.136 56.584C26.624 54.3653 26.1333 52.6587 25.664 51.464C25.2373 50.2693 24.576 49.3093 23.68 48.584C22.784 47.8587 21.5253 47.496 19.904 47.496H13.824V62.216C13.824 63.8373 13.952 65.0107 14.208 65.736C14.464 66.4613 14.9333 66.952 15.616 67.208C16.3413 67.464 17.472 67.6347 19.008 67.72V69C17.0453 68.872 14.336 68.808 10.88 68.808C7.21065 68.808 4.47999 68.872 2.68799 69V67.72C4.22399 67.6347 5.33332 67.464 6.01599 67.208C6.74132 66.952 7.23199 66.4613 7.48799 65.736C7.74399 65.0107 7.87199 63.8373 7.87199 62.216V30.472C7.87199 28.8507 7.74399 27.6773 7.48799 26.952C7.23199 26.2267 6.74132 25.736 6.01599 25.48C5.33332 25.224 4.22399 25.0533 2.68799 24.968V23.688C4.47999 23.816 7.08266 23.88 10.496 23.88L17.408 23.816C18.2187 23.7733 19.136 23.752 20.16 23.752C25.1093 23.752 28.9067 24.7973 31.552 26.888C34.24 28.936 35.584 31.6027 35.584 34.888C35.584 36.552 35.1787 38.2373 34.368 39.944C33.6 41.608 32.2773 43.1227 30.4 44.488C28.5653 45.8107 26.1547 46.7067 23.168 47.176L23.936 47.304C26.752 47.7733 28.8 48.6267 30.08 49.864C31.36 51.1013 32.2987 53.064 32.896 55.752L34.496 62.28C34.9227 64.2427 35.3707 65.608 35.84 66.376C36.3093 67.144 36.9493 67.528 37.76 67.528C38.4853 67.528 39.0827 67.336 39.552 66.952C40.064 66.568 40.64 65.9493 41.28 65.096L42.24 65.8ZM18.56 24.968C17.2373 24.968 16.2347 25.1173 15.552 25.416C14.912 25.7147 14.464 26.248 14.208 27.016C13.952 27.784 13.824 28.936 13.824 30.472V46.216H18.112C22.336 46.216 25.2373 45.2773 26.816 43.4C28.3947 41.5227 29.184 38.92 29.184 35.592C29.184 32.0933 28.352 29.448 26.688 27.656C25.024 25.864 22.3147 24.968 18.56 24.968Z" fill="#E03616"/>
<path d="M42.24 65.8C41.2587 67.2507 40.2773 68.296 39.296 68.936C38.3147 69.576 37.0133 69.896 35.392 69.896C33.6427 69.896 32.192 69.384 31.04 68.36C29.9307 67.336 29.0987 65.544 28.544 62.984L27.136 56.584C26.624 54.3653 26.1333 52.6587 25.664 51.464C25.2373 50.2693 24.576 49.3093 23.68 48.584C22.784 47.8587 21.5253 47.496 19.904 47.496H13.824V62.216C13.824 63.8373 13.952 65.0107 14.208 65.736C14.464 66.4613 14.9333 66.952 15.616 67.208C16.3413 67.464 17.472 67.6347 19.008 67.72V69C17.0453 68.872 14.336 68.808 10.88 68.808C7.21065 68.808 4.47999 68.872 2.68799 69V67.72C4.22399 67.6347 5.33332 67.464 6.01599 67.208C6.74132 66.952 7.23199 66.4613 7.48799 65.736C7.74399 65.0107 7.87199 63.8373 7.87199 62.216V30.472C7.87199 28.8507 7.74399 27.6773 7.48799 26.952C7.23199 26.2267 6.74132 25.736 6.01599 25.48C5.33332 25.224 4.22399 25.0533 2.68799 24.968V23.688C4.47999 23.816 7.08266 23.88 10.496 23.88L17.408 23.816C18.2187 23.7733 19.136 23.752 20.16 23.752C25.1093 23.752 28.9067 24.7973 31.552 26.888C34.24 28.936 35.584 31.6027 35.584 34.888C35.584 36.552 35.1787 38.2373 34.368 39.944C33.6 41.608 32.2773 43.1227 30.4 44.488C28.5653 45.8107 26.1547 46.7067 23.168 47.176L23.936 47.304C26.752 47.7733 28.8 48.6267 30.08 49.864C31.36 51.1013 32.2987 53.064 32.896 55.752L34.496 62.28C34.9227 64.2427 35.3707 65.608 35.84 66.376C36.3093 67.144 36.9493 67.528 37.76 67.528C38.4853 67.528 39.0827 67.336 39.552 66.952C40.064 66.568 40.64 65.9493 41.28 65.096L42.24 65.8ZM18.56 24.968C17.2373 24.968 16.2347 25.1173 15.552 25.416C14.912 25.7147 14.464 26.248 14.208 27.016C13.952 27.784 13.824 28.936 13.824 30.472V46.216H18.112C22.336 46.216 25.2373 45.2773 26.816 43.4C28.3947 41.5227 29.184 38.92 29.184 35.592C29.184 32.0933 28.352 29.448 26.688 27.656C25.024 25.864 22.3147 24.968 18.56 24.968Z" stroke="#E03616" stroke-width="2" mask="url(#path-16-outside-2)"/>
</g>
</g>
</g>
</svg>
