<?xml version="1.0" encoding="utf-8"?>
<!-- Generator: Adobe Illustrator 23.1.1, SVG Export Plug-In . SVG Version: 6.00 Build 0)  -->
<svg version="1.1" id="Layer_1" xmlns="http://www.w3.org/2000/svg" xmlns:xlink="http://www.w3.org/1999/xlink" x="0px" y="0px"
	 viewBox="0 0 500 500" style="enable-background:new 0 0 500 500;" xml:space="preserve">
<style type="text/css">
	.st0{fill:#1B1B1B;}
</style>
<g>
	<g>
		<g>
			<path class="st0" d="M250.37,261.74l-28.18-17.61c-0.7-0.44-0.92-1.36-0.48-2.07c0.44-0.7,1.36-0.92,2.07-0.48l26.59,16.62
				l26.59-16.62c0.7-0.44,1.63-0.23,2.07,0.48c0.44,0.7,0.23,1.63-0.48,2.07L250.37,261.74z"/>
		</g>
		<g>
			<path class="st0" d="M250.37,278.86l-28.18-17.61c-0.7-0.44-0.92-1.37-0.48-2.07c0.44-0.7,1.36-0.92,2.07-0.48l26.59,16.62
				l26.59-16.62c0.7-0.44,1.63-0.22,2.07,0.48c0.44,0.7,0.23,1.63-0.48,2.07L250.37,278.86z"/>
		</g>
	</g>
	<g>
		<path class="st0" d="M229.01,230.45c0,0.57-0.11,1.08-0.32,1.53c-0.21,0.45-0.5,0.83-0.88,1.14c-0.38,0.31-0.82,0.55-1.32,0.7
			c-0.51,0.16-1.05,0.24-1.64,0.24c-0.41,0-0.79-0.04-1.14-0.1c-0.35-0.07-0.66-0.15-0.94-0.26c-0.27-0.1-0.5-0.2-0.69-0.31
			c-0.19-0.11-0.32-0.2-0.39-0.27c-0.07-0.08-0.13-0.17-0.16-0.29c-0.03-0.12-0.05-0.27-0.05-0.47c0-0.14,0.01-0.25,0.02-0.35
			c0.01-0.09,0.03-0.17,0.06-0.22c0.03-0.06,0.06-0.1,0.09-0.12c0.04-0.02,0.08-0.03,0.13-0.03c0.09,0,0.21,0.05,0.37,0.16
			c0.16,0.11,0.37,0.22,0.62,0.35c0.25,0.13,0.56,0.24,0.91,0.35c0.36,0.11,0.77,0.17,1.23,0.17c0.35,0,0.68-0.05,0.97-0.14
			c0.29-0.09,0.54-0.23,0.76-0.4c0.21-0.17,0.37-0.39,0.49-0.64c0.11-0.25,0.17-0.54,0.17-0.86c0-0.35-0.08-0.64-0.24-0.89
			c-0.16-0.25-0.37-0.46-0.62-0.65c-0.26-0.19-0.55-0.36-0.88-0.51c-0.33-0.15-0.67-0.31-1.02-0.47c-0.35-0.16-0.68-0.34-1.01-0.53
			s-0.62-0.43-0.88-0.69c-0.26-0.26-0.47-0.57-0.63-0.93c-0.16-0.36-0.24-0.78-0.24-1.28c0-0.51,0.09-0.97,0.28-1.37
			c0.19-0.4,0.44-0.74,0.77-1.01c0.33-0.27,0.72-0.48,1.18-0.62c0.46-0.14,0.95-0.21,1.48-0.21c0.27,0,0.54,0.02,0.82,0.07
			c0.27,0.05,0.53,0.11,0.78,0.19c0.24,0.08,0.46,0.17,0.65,0.26c0.19,0.1,0.31,0.18,0.37,0.24c0.06,0.06,0.1,0.11,0.12,0.14
			c0.02,0.03,0.03,0.08,0.05,0.13c0.01,0.05,0.02,0.12,0.03,0.19c0.01,0.08,0.01,0.17,0.01,0.29c0,0.11,0,0.21-0.01,0.3
			c-0.01,0.09-0.02,0.16-0.04,0.22c-0.02,0.06-0.05,0.1-0.08,0.13c-0.03,0.03-0.07,0.04-0.12,0.04c-0.07,0-0.18-0.04-0.33-0.13
			c-0.15-0.09-0.33-0.19-0.54-0.3c-0.21-0.11-0.47-0.21-0.76-0.3c-0.29-0.09-0.62-0.14-0.99-0.14c-0.34,0-0.64,0.05-0.89,0.14
			c-0.25,0.09-0.46,0.21-0.62,0.36c-0.16,0.15-0.29,0.33-0.37,0.54c-0.08,0.21-0.12,0.43-0.12,0.66c0,0.34,0.08,0.63,0.24,0.88
			c0.16,0.25,0.37,0.46,0.63,0.65c0.26,0.19,0.56,0.36,0.89,0.52c0.33,0.16,0.67,0.32,1.02,0.48c0.35,0.16,0.69,0.34,1.02,0.53
			c0.33,0.19,0.63,0.42,0.89,0.68c0.26,0.26,0.47,0.57,0.63,0.93C228.93,229.54,229.01,229.96,229.01,230.45z"/>
		<path class="st0" d="M239.5,232.15c0,0.1,0,0.19-0.01,0.26c-0.01,0.08-0.02,0.14-0.03,0.2c-0.02,0.06-0.04,0.11-0.06,0.15
			c-0.03,0.04-0.07,0.1-0.13,0.16c-0.06,0.06-0.2,0.16-0.4,0.29c-0.2,0.13-0.45,0.26-0.75,0.38c-0.3,0.12-0.64,0.23-1.03,0.31
			c-0.39,0.09-0.81,0.13-1.27,0.13c-0.79,0-1.51-0.13-2.15-0.4c-0.64-0.26-1.18-0.66-1.63-1.17c-0.45-0.52-0.8-1.15-1.04-1.91
			s-0.36-1.63-0.36-2.62c0-1.01,0.13-1.92,0.39-2.71c0.26-0.79,0.63-1.47,1.1-2.02c0.47-0.55,1.04-0.97,1.7-1.26
			c0.66-0.29,1.39-0.43,2.19-0.43c0.35,0,0.7,0.03,1.03,0.1c0.33,0.07,0.64,0.15,0.93,0.25c0.28,0.1,0.54,0.22,0.76,0.35
			c0.22,0.13,0.37,0.24,0.46,0.33c0.09,0.08,0.14,0.15,0.17,0.19c0.02,0.04,0.05,0.1,0.06,0.16c0.02,0.06,0.03,0.13,0.04,0.21
			c0.01,0.08,0.01,0.18,0.01,0.29c0,0.13-0.01,0.23-0.02,0.32c-0.01,0.09-0.03,0.16-0.06,0.22c-0.03,0.06-0.06,0.1-0.09,0.13
			c-0.04,0.03-0.08,0.04-0.13,0.04c-0.09,0-0.21-0.06-0.37-0.18c-0.16-0.12-0.36-0.26-0.61-0.41c-0.25-0.15-0.55-0.28-0.91-0.41
			c-0.36-0.12-0.79-0.18-1.29-0.18c-0.54,0-1.04,0.11-1.49,0.33c-0.45,0.22-0.83,0.54-1.14,0.96c-0.32,0.42-0.56,0.94-0.74,1.54
			c-0.17,0.61-0.26,1.3-0.26,2.08c0,0.77,0.08,1.46,0.25,2.06c0.17,0.6,0.41,1.09,0.72,1.49c0.31,0.4,0.7,0.7,1.15,0.91
			c0.46,0.2,0.97,0.31,1.55,0.31c0.49,0,0.91-0.06,1.28-0.18c0.36-0.12,0.67-0.25,0.93-0.4c0.26-0.15,0.47-0.28,0.63-0.4
			c0.16-0.12,0.29-0.18,0.39-0.18c0.04,0,0.08,0.01,0.11,0.03c0.03,0.02,0.06,0.06,0.08,0.11c0.02,0.05,0.03,0.13,0.04,0.22
			C239.49,231.88,239.5,232,239.5,232.15z"/>
		<path class="st0" d="M249.81,233.63c0,0.05-0.01,0.09-0.03,0.13c-0.02,0.04-0.06,0.07-0.12,0.09c-0.06,0.03-0.15,0.04-0.26,0.06
			c-0.11,0.01-0.26,0.02-0.45,0.02c-0.16,0-0.3-0.01-0.4-0.02c-0.1-0.01-0.19-0.03-0.25-0.06c-0.06-0.03-0.11-0.07-0.15-0.12
			c-0.04-0.05-0.06-0.11-0.09-0.19l-1.12-2.88c-0.13-0.33-0.27-0.63-0.41-0.9c-0.14-0.27-0.31-0.51-0.51-0.71
			c-0.2-0.2-0.43-0.35-0.69-0.46c-0.26-0.11-0.58-0.17-0.95-0.17h-1.09v5.21c0,0.05-0.01,0.09-0.04,0.13
			c-0.03,0.04-0.07,0.07-0.13,0.09c-0.06,0.02-0.14,0.04-0.25,0.06c-0.1,0.02-0.23,0.02-0.39,0.02c-0.16,0-0.29-0.01-0.39-0.02
			c-0.1-0.02-0.19-0.03-0.25-0.06c-0.06-0.02-0.11-0.05-0.13-0.09c-0.03-0.04-0.04-0.08-0.04-0.13v-11.32
			c0-0.25,0.06-0.42,0.19-0.51c0.13-0.1,0.27-0.15,0.41-0.15h2.6c0.31,0,0.57,0.01,0.77,0.02c0.2,0.02,0.39,0.03,0.55,0.05
			c0.47,0.08,0.89,0.21,1.25,0.39c0.36,0.18,0.67,0.4,0.91,0.67c0.25,0.27,0.43,0.58,0.55,0.93c0.12,0.35,0.18,0.74,0.18,1.16
			c0,0.41-0.06,0.78-0.17,1.1c-0.11,0.32-0.27,0.61-0.48,0.86c-0.21,0.25-0.46,0.47-0.75,0.65c-0.29,0.18-0.61,0.34-0.97,0.46
			c0.2,0.09,0.38,0.2,0.55,0.34c0.16,0.14,0.32,0.3,0.46,0.49c0.14,0.19,0.28,0.41,0.4,0.65c0.13,0.25,0.25,0.52,0.38,0.83l1.1,2.69
			c0.09,0.23,0.15,0.39,0.17,0.48C249.8,233.51,249.81,233.58,249.81,233.63z M247.36,225.04c0-0.48-0.11-0.88-0.32-1.21
			c-0.21-0.33-0.57-0.57-1.08-0.71c-0.16-0.04-0.34-0.08-0.53-0.09c-0.2-0.02-0.46-0.03-0.78-0.03h-1.37v4.12h1.59
			c0.43,0,0.8-0.05,1.11-0.16c0.31-0.1,0.57-0.25,0.78-0.43c0.21-0.19,0.36-0.4,0.46-0.66
			C247.31,225.61,247.36,225.34,247.36,225.04z"/>
		<path class="st0" d="M262.22,227.62c0,0.99-0.12,1.88-0.35,2.67c-0.23,0.79-0.58,1.47-1.04,2.03c-0.46,0.56-1.04,0.99-1.74,1.28
			c-0.7,0.3-1.52,0.45-2.45,0.45c-0.92,0-1.72-0.14-2.39-0.41c-0.67-0.27-1.23-0.67-1.66-1.2c-0.44-0.52-0.76-1.17-0.98-1.95
			c-0.21-0.77-0.32-1.67-0.32-2.67c0-0.96,0.12-1.84,0.35-2.63c0.23-0.79,0.58-1.46,1.05-2.01c0.47-0.55,1.05-0.98,1.75-1.28
			c0.7-0.3,1.51-0.45,2.45-0.45c0.9,0,1.68,0.14,2.35,0.41c0.67,0.27,1.22,0.67,1.67,1.19c0.44,0.52,0.78,1.16,0.99,1.93
			C262.11,225.76,262.22,226.63,262.22,227.62z M260.5,227.74c0-0.69-0.06-1.34-0.18-1.93c-0.12-0.6-0.33-1.11-0.61-1.55
			c-0.29-0.44-0.67-0.78-1.15-1.03c-0.48-0.25-1.07-0.37-1.77-0.37c-0.7,0-1.3,0.13-1.77,0.4c-0.48,0.26-0.87,0.62-1.17,1.06
			c-0.3,0.44-0.51,0.96-0.64,1.55c-0.13,0.59-0.19,1.21-0.19,1.86c0,0.72,0.06,1.38,0.18,1.98c0.12,0.6,0.32,1.13,0.6,1.56
			c0.28,0.44,0.66,0.78,1.14,1.02c0.48,0.24,1.07,0.36,1.79,0.36c0.71,0,1.31-0.13,1.79-0.4c0.48-0.26,0.87-0.62,1.17-1.07
			c0.3-0.45,0.51-0.97,0.63-1.56C260.43,229.02,260.5,228.4,260.5,227.74z"/>
		<path class="st0" d="M271.13,233.17c0,0.13-0.01,0.23-0.02,0.32c-0.01,0.08-0.03,0.16-0.06,0.22c-0.03,0.06-0.06,0.1-0.1,0.13
			c-0.04,0.03-0.09,0.04-0.15,0.04h-5.4c-0.15,0-0.28-0.05-0.41-0.15c-0.13-0.1-0.19-0.27-0.19-0.51V221.9
			c0-0.05,0.01-0.09,0.04-0.13c0.03-0.04,0.07-0.07,0.13-0.09c0.06-0.02,0.15-0.04,0.26-0.06c0.11-0.02,0.24-0.02,0.39-0.02
			c0.16,0,0.29,0.01,0.39,0.02c0.1,0.02,0.19,0.03,0.25,0.06c0.06,0.02,0.11,0.05,0.13,0.09c0.03,0.04,0.04,0.08,0.04,0.13v10.57
			h4.38c0.06,0,0.11,0.01,0.15,0.04c0.04,0.03,0.08,0.07,0.1,0.12c0.03,0.05,0.05,0.12,0.06,0.21
			C271.12,232.94,271.13,233.04,271.13,233.17z"/>
		<path class="st0" d="M279.26,233.17c0,0.13-0.01,0.23-0.02,0.32c-0.01,0.08-0.03,0.16-0.06,0.22c-0.03,0.06-0.06,0.1-0.1,0.13
			c-0.04,0.03-0.09,0.04-0.15,0.04h-5.4c-0.15,0-0.28-0.05-0.41-0.15c-0.13-0.1-0.19-0.27-0.19-0.51V221.9
			c0-0.05,0.01-0.09,0.04-0.13c0.03-0.04,0.07-0.07,0.13-0.09c0.06-0.02,0.15-0.04,0.26-0.06c0.11-0.02,0.24-0.02,0.39-0.02
			c0.16,0,0.29,0.01,0.39,0.02c0.1,0.02,0.19,0.03,0.25,0.06c0.06,0.02,0.11,0.05,0.13,0.09c0.03,0.04,0.04,0.08,0.04,0.13v10.57
			h4.38c0.06,0,0.11,0.01,0.15,0.04c0.04,0.03,0.08,0.07,0.1,0.12c0.03,0.05,0.05,0.12,0.06,0.21
			C279.26,232.94,279.26,233.04,279.26,233.17z"/>
	</g>
</g>
</svg>
